<mxfile host="app.diagrams.net" modified="2023-08-31T18:37:35.251Z" agent="Mozilla/5.0 (Windows NT 10.0; Win64; x64; rv:109.0) Gecko/20100101 Firefox/116.0" etag="rWE02F6rlMxJSDd8PYpt" version="21.7.1" type="github">
  <diagram id="C5RBs43oDa-KdzZeNtuy" name="Page-1">
    <mxGraphModel dx="11280" dy="3360" grid="1" gridSize="10" guides="1" tooltips="1" connect="1" arrows="1" fold="1" page="0" pageScale="1" pageWidth="2336" pageHeight="1654" background="#FFFFFF" math="0" shadow="0">
      <root>
        <mxCell id="WIyWlLk6GJQsqaUBKTNV-0" />
        <mxCell id="WIyWlLk6GJQsqaUBKTNV-1" parent="WIyWlLk6GJQsqaUBKTNV-0" />
        <mxCell id="hAbh9SorM6jJL6epeVYg-423" value="Legend" style="swimlane;whiteSpace=wrap;html=1;" vertex="1" parent="WIyWlLk6GJQsqaUBKTNV-1">
          <mxGeometry x="4410" y="60" width="200" height="710" as="geometry">
            <mxRectangle x="2370" y="190" width="140" height="30" as="alternateBounds" />
          </mxGeometry>
        </mxCell>
        <mxCell id="hAbh9SorM6jJL6epeVYg-409" value="&lt;div style=&quot;color: rgb(59, 59, 59); background-color: rgb(255, 255, 255); font-family: Consolas, &amp;quot;Courier New&amp;quot;, monospace; font-weight: normal; font-size: 14px; line-height: 19px;&quot;&gt;&lt;div&gt;CommandHandler&lt;/div&gt;&lt;/div&gt;" style="ellipse;whiteSpace=wrap;html=1;aspect=fixed;fillColor=#647687;fontColor=#ffffff;strokeColor=#314354;" vertex="1" parent="hAbh9SorM6jJL6epeVYg-423">
          <mxGeometry x="60" y="220" width="80" height="80" as="geometry" />
        </mxCell>
        <mxCell id="hAbh9SorM6jJL6epeVYg-412" value="State" style="rounded=1;whiteSpace=wrap;html=1;fillColor=#647687;fontColor=#ffffff;strokeColor=#314354;" vertex="1" parent="hAbh9SorM6jJL6epeVYg-423">
          <mxGeometry x="40" y="430" width="120" height="60" as="geometry" />
        </mxCell>
        <mxCell id="hAbh9SorM6jJL6epeVYg-413" value="Function" style="shape=hexagon;perimeter=hexagonPerimeter2;whiteSpace=wrap;html=1;fixedSize=1;fillColor=#647687;fontColor=#ffffff;strokeColor=#314354;" vertex="1" parent="hAbh9SorM6jJL6epeVYg-423">
          <mxGeometry x="40" y="320" width="120" height="80" as="geometry" />
        </mxCell>
        <mxCell id="hAbh9SorM6jJL6epeVYg-426" value="Conversation" style="swimlane;whiteSpace=wrap;html=1;" vertex="1" parent="hAbh9SorM6jJL6epeVYg-423">
          <mxGeometry x="30" y="50" width="137.5" height="160" as="geometry" />
        </mxCell>
        <mxCell id="hAbh9SorM6jJL6epeVYg-442" value="&lt;div style=&quot;color: rgb(59, 59, 59); background-color: rgb(255, 255, 255); font-family: Consolas, &amp;quot;Courier New&amp;quot;, monospace; font-weight: normal; font-size: 14px; line-height: 19px;&quot;&gt;&lt;div style=&quot;font-size: 14px;&quot;&gt;&lt;div style=&quot;color: rgb(59, 59, 59); background-color: rgb(255, 255, 255); font-family: Consolas, &amp;quot;Courier New&amp;quot;, monospace; font-weight: normal; font-size: 14px; line-height: 19px;&quot;&gt;&lt;div&gt;CallbackQueryHandler&lt;/div&gt;&lt;/div&gt;&lt;/div&gt;&lt;/div&gt;" style="ellipse;whiteSpace=wrap;html=1;fillColor=#647687;fontColor=#ffffff;strokeColor=#314354;" vertex="1" parent="hAbh9SorM6jJL6epeVYg-423">
          <mxGeometry x="40" y="510" width="120" height="80" as="geometry" />
        </mxCell>
        <mxCell id="hAbh9SorM6jJL6epeVYg-443" value="&lt;div style=&quot;color: rgb(59, 59, 59); background-color: rgb(255, 255, 255); font-family: Consolas, &amp;quot;Courier New&amp;quot;, monospace; font-weight: normal; font-size: 14px; line-height: 19px;&quot;&gt;&lt;div&gt;MessageHandler&lt;/div&gt;&lt;/div&gt;" style="shape=callout;whiteSpace=wrap;html=1;perimeter=calloutPerimeter;fillColor=#647687;fontColor=#ffffff;strokeColor=#314354;" vertex="1" parent="hAbh9SorM6jJL6epeVYg-423">
          <mxGeometry x="40" y="610" width="120" height="80" as="geometry" />
        </mxCell>
        <mxCell id="hAbh9SorM6jJL6epeVYg-427" value="&lt;div style=&quot;font-size: 24px;&quot;&gt;&lt;div style=&quot;color: rgb(59, 59, 59); font-family: Consolas, &amp;quot;Courier New&amp;quot;, monospace; font-weight: normal; font-size: 14px; line-height: 19px;&quot;&gt;&lt;div&gt;main_conv&lt;/div&gt;&lt;/div&gt;&lt;/div&gt;" style="swimlane;whiteSpace=wrap;html=1;startSize=50;rounded=0;shadow=0;labelBackgroundColor=none;" vertex="1" parent="WIyWlLk6GJQsqaUBKTNV-1">
          <mxGeometry x="-2160" y="60" width="6530" height="3090" as="geometry">
            <mxRectangle x="1040" y="1490" width="100" height="50" as="alternateBounds" />
          </mxGeometry>
        </mxCell>
        <mxCell id="hAbh9SorM6jJL6epeVYg-487" value="" style="edgeStyle=orthogonalEdgeStyle;rounded=0;orthogonalLoop=1;jettySize=auto;html=1;" edge="1" parent="hAbh9SorM6jJL6epeVYg-427" source="hAbh9SorM6jJL6epeVYg-0" target="hAbh9SorM6jJL6epeVYg-483">
          <mxGeometry relative="1" as="geometry" />
        </mxCell>
        <mxCell id="hAbh9SorM6jJL6epeVYg-0" value="start" style="ellipse;whiteSpace=wrap;html=1;aspect=fixed;fillColor=#647687;fontColor=#ffffff;strokeColor=#314354;fontSize=14;" vertex="1" parent="hAbh9SorM6jJL6epeVYg-427">
          <mxGeometry x="4420" y="90" width="80" height="80" as="geometry" />
        </mxCell>
        <mxCell id="hAbh9SorM6jJL6epeVYg-627" style="edgeStyle=orthogonalEdgeStyle;rounded=0;orthogonalLoop=1;jettySize=auto;html=1;entryX=0;entryY=0.5;entryDx=0;entryDy=0;" edge="1" parent="hAbh9SorM6jJL6epeVYg-427" source="hAbh9SorM6jJL6epeVYg-436" target="hAbh9SorM6jJL6epeVYg-624">
          <mxGeometry relative="1" as="geometry" />
        </mxCell>
        <mxCell id="hAbh9SorM6jJL6epeVYg-436" value="&lt;div style=&quot;color: rgb(59, 59, 59); background-color: rgb(255, 255, 255); font-family: Consolas, &amp;quot;Courier New&amp;quot;, monospace; font-weight: normal; font-size: 14px; line-height: 19px;&quot;&gt;&lt;div&gt;create_tag&lt;/div&gt;&lt;/div&gt;" style="ellipse;whiteSpace=wrap;html=1;aspect=fixed;" vertex="1" parent="hAbh9SorM6jJL6epeVYg-427">
          <mxGeometry x="1370" y="480" width="80" height="80" as="geometry" />
        </mxCell>
        <mxCell id="hAbh9SorM6jJL6epeVYg-794" style="edgeStyle=orthogonalEdgeStyle;rounded=0;orthogonalLoop=1;jettySize=auto;html=1;entryX=0;entryY=0.5;entryDx=0;entryDy=0;" edge="1" parent="hAbh9SorM6jJL6epeVYg-427" source="hAbh9SorM6jJL6epeVYg-437" target="hAbh9SorM6jJL6epeVYg-738">
          <mxGeometry relative="1" as="geometry" />
        </mxCell>
        <mxCell id="hAbh9SorM6jJL6epeVYg-437" value="&lt;div style=&quot;color: rgb(59, 59, 59); background-color: rgb(255, 255, 255); font-family: Consolas, &amp;quot;Courier New&amp;quot;, monospace; font-weight: normal; font-size: 14px; line-height: 19px;&quot;&gt;&lt;div&gt;create_resource&lt;/div&gt;&lt;/div&gt;" style="ellipse;whiteSpace=wrap;html=1;aspect=fixed;" vertex="1" parent="hAbh9SorM6jJL6epeVYg-427">
          <mxGeometry x="2280" y="480" width="80" height="80" as="geometry" />
        </mxCell>
        <mxCell id="hAbh9SorM6jJL6epeVYg-438" value="&lt;div style=&quot;color: rgb(59, 59, 59); background-color: rgb(255, 255, 255); font-family: Consolas, &amp;quot;Courier New&amp;quot;, monospace; font-weight: normal; font-size: 14px; line-height: 19px;&quot;&gt;&lt;div&gt;timer&lt;/div&gt;&lt;/div&gt;" style="ellipse;whiteSpace=wrap;html=1;aspect=fixed;" vertex="1" parent="hAbh9SorM6jJL6epeVYg-427">
          <mxGeometry x="4110" y="480" width="80" height="80" as="geometry" />
        </mxCell>
        <mxCell id="hAbh9SorM6jJL6epeVYg-439" value="&lt;div style=&quot;color: rgb(59, 59, 59); background-color: rgb(255, 255, 255); font-family: Consolas, &amp;quot;Courier New&amp;quot;, monospace; font-weight: normal; font-size: 14px; line-height: 19px;&quot;&gt;&lt;div&gt;stop&lt;/div&gt;&lt;/div&gt;" style="ellipse;whiteSpace=wrap;html=1;aspect=fixed;" vertex="1" parent="hAbh9SorM6jJL6epeVYg-427">
          <mxGeometry x="4330" y="480" width="80" height="80" as="geometry" />
        </mxCell>
        <mxCell id="hAbh9SorM6jJL6epeVYg-509" style="edgeStyle=orthogonalEdgeStyle;rounded=0;orthogonalLoop=1;jettySize=auto;html=1;entryX=0;entryY=0.5;entryDx=0;entryDy=0;" edge="1" parent="hAbh9SorM6jJL6epeVYg-427" source="hAbh9SorM6jJL6epeVYg-440" target="hAbh9SorM6jJL6epeVYg-508">
          <mxGeometry relative="1" as="geometry" />
        </mxCell>
        <mxCell id="hAbh9SorM6jJL6epeVYg-440" value="&lt;div style=&quot;color: rgb(59, 59, 59); background-color: rgb(255, 255, 255); font-family: Consolas, &amp;quot;Courier New&amp;quot;, monospace; font-weight: normal; font-size: 14px; line-height: 19px;&quot;&gt;&lt;div&gt;create_task&lt;/div&gt;&lt;/div&gt;" style="ellipse;whiteSpace=wrap;html=1;aspect=fixed;" vertex="1" parent="hAbh9SorM6jJL6epeVYg-427">
          <mxGeometry x="460" y="480" width="80" height="80" as="geometry" />
        </mxCell>
        <mxCell id="hAbh9SorM6jJL6epeVYg-441" value="&lt;div style=&quot;color: rgb(59, 59, 59); background-color: rgb(255, 255, 255); font-family: Consolas, &amp;quot;Courier New&amp;quot;, monospace; font-weight: normal; font-size: 14px; line-height: 19px;&quot;&gt;&lt;div&gt;report&lt;/div&gt;&lt;/div&gt;" style="ellipse;whiteSpace=wrap;html=1;aspect=fixed;" vertex="1" parent="hAbh9SorM6jJL6epeVYg-427">
          <mxGeometry x="3480" y="480" width="80" height="80" as="geometry" />
        </mxCell>
        <mxCell id="hAbh9SorM6jJL6epeVYg-444" value="&lt;div style=&quot;color: rgb(59, 59, 59); background-color: rgb(255, 255, 255); font-family: Consolas, &amp;quot;Courier New&amp;quot;, monospace; font-weight: normal; font-size: 14px; line-height: 19px;&quot;&gt;&lt;div&gt;COMPLETE_TASK&lt;/div&gt;&lt;/div&gt;" style="ellipse;whiteSpace=wrap;html=1;" vertex="1" parent="hAbh9SorM6jJL6epeVYg-427">
          <mxGeometry x="4520" y="480" width="120" height="80" as="geometry" />
        </mxCell>
        <mxCell id="hAbh9SorM6jJL6epeVYg-445" value="&lt;div style=&quot;color: rgb(59, 59, 59); background-color: rgb(255, 255, 255); font-family: Consolas, &amp;quot;Courier New&amp;quot;, monospace; font-weight: normal; font-size: 14px; line-height: 19px;&quot;&gt;&lt;div&gt;SKIP_TASK&lt;/div&gt;&lt;/div&gt;" style="ellipse;whiteSpace=wrap;html=1;" vertex="1" parent="hAbh9SorM6jJL6epeVYg-427">
          <mxGeometry x="4660" y="480" width="120" height="80" as="geometry" />
        </mxCell>
        <mxCell id="hAbh9SorM6jJL6epeVYg-446" value="&lt;div style=&quot;color: rgb(59, 59, 59); background-color: rgb(255, 255, 255); font-family: Consolas, &amp;quot;Courier New&amp;quot;, monospace; font-weight: normal; font-size: 14px; line-height: 19px;&quot;&gt;&lt;div&gt;TASK_MORE&lt;/div&gt;&lt;/div&gt;" style="ellipse;whiteSpace=wrap;html=1;" vertex="1" parent="hAbh9SorM6jJL6epeVYg-427">
          <mxGeometry x="4800" y="480" width="120" height="80" as="geometry" />
        </mxCell>
        <mxCell id="hAbh9SorM6jJL6epeVYg-510" style="edgeStyle=orthogonalEdgeStyle;rounded=0;orthogonalLoop=1;jettySize=auto;html=1;entryX=1;entryY=0.5;entryDx=0;entryDy=0;" edge="1" parent="hAbh9SorM6jJL6epeVYg-427" source="hAbh9SorM6jJL6epeVYg-447" target="hAbh9SorM6jJL6epeVYg-508">
          <mxGeometry relative="1" as="geometry" />
        </mxCell>
        <mxCell id="hAbh9SorM6jJL6epeVYg-447" value="&lt;div style=&quot;color: rgb(59, 59, 59); background-color: rgb(255, 255, 255); font-family: Consolas, &amp;quot;Courier New&amp;quot;, monospace; font-weight: normal; font-size: 14px; line-height: 19px;&quot;&gt;&lt;div&gt;EDIT_TASK&lt;/div&gt;&lt;/div&gt;" style="ellipse;whiteSpace=wrap;html=1;" vertex="1" parent="hAbh9SorM6jJL6epeVYg-427">
          <mxGeometry x="570" y="480" width="120" height="80" as="geometry" />
        </mxCell>
        <mxCell id="hAbh9SorM6jJL6epeVYg-626" style="edgeStyle=orthogonalEdgeStyle;rounded=0;orthogonalLoop=1;jettySize=auto;html=1;entryX=1;entryY=0.5;entryDx=0;entryDy=0;" edge="1" parent="hAbh9SorM6jJL6epeVYg-427" source="hAbh9SorM6jJL6epeVYg-448" target="hAbh9SorM6jJL6epeVYg-624">
          <mxGeometry relative="1" as="geometry" />
        </mxCell>
        <mxCell id="hAbh9SorM6jJL6epeVYg-448" value="&lt;div style=&quot;color: rgb(59, 59, 59); background-color: rgb(255, 255, 255); font-family: Consolas, &amp;quot;Courier New&amp;quot;, monospace; font-weight: normal; font-size: 14px; line-height: 19px;&quot;&gt;&lt;div&gt;EDIT_TAG&lt;/div&gt;&lt;/div&gt;" style="ellipse;whiteSpace=wrap;html=1;" vertex="1" parent="hAbh9SorM6jJL6epeVYg-427">
          <mxGeometry x="1468" y="480" width="120" height="80" as="geometry" />
        </mxCell>
        <mxCell id="hAbh9SorM6jJL6epeVYg-793" style="edgeStyle=orthogonalEdgeStyle;rounded=0;orthogonalLoop=1;jettySize=auto;html=1;entryX=1;entryY=0.5;entryDx=0;entryDy=0;" edge="1" parent="hAbh9SorM6jJL6epeVYg-427" source="hAbh9SorM6jJL6epeVYg-449" target="hAbh9SorM6jJL6epeVYg-738">
          <mxGeometry relative="1" as="geometry" />
        </mxCell>
        <mxCell id="hAbh9SorM6jJL6epeVYg-449" value="&lt;div style=&quot;color: rgb(59, 59, 59); background-color: rgb(255, 255, 255); font-family: Consolas, &amp;quot;Courier New&amp;quot;, monospace; font-weight: normal; font-size: 14px; line-height: 19px;&quot;&gt;&lt;div&gt;EDIT_RESOURCE&lt;/div&gt;&lt;/div&gt;" style="ellipse;whiteSpace=wrap;html=1;" vertex="1" parent="hAbh9SorM6jJL6epeVYg-427">
          <mxGeometry x="2390" y="480" width="120" height="80" as="geometry" />
        </mxCell>
        <mxCell id="hAbh9SorM6jJL6epeVYg-456" value="&lt;div style=&quot;color: rgb(59, 59, 59); background-color: rgb(255, 255, 255); font-family: Consolas, &amp;quot;Courier New&amp;quot;, monospace; font-weight: normal; font-size: 14px; line-height: 19px;&quot;&gt;&lt;div&gt;DELETE_TASK&lt;/div&gt;&lt;/div&gt;" style="ellipse;whiteSpace=wrap;html=1;" vertex="1" parent="hAbh9SorM6jJL6epeVYg-427">
          <mxGeometry x="4940" y="480" width="120" height="80" as="geometry" />
        </mxCell>
        <mxCell id="hAbh9SorM6jJL6epeVYg-457" value="&lt;div style=&quot;color: rgb(59, 59, 59); background-color: rgb(255, 255, 255); font-family: Consolas, &amp;quot;Courier New&amp;quot;, monospace; font-weight: normal; font-size: 14px; line-height: 19px;&quot;&gt;&lt;div&gt;DELETE_TAG&lt;/div&gt;&lt;/div&gt;" style="ellipse;whiteSpace=wrap;html=1;" vertex="1" parent="hAbh9SorM6jJL6epeVYg-427">
          <mxGeometry x="5080" y="480" width="120" height="80" as="geometry" />
        </mxCell>
        <mxCell id="hAbh9SorM6jJL6epeVYg-458" value="&lt;div style=&quot;color: rgb(59, 59, 59); background-color: rgb(255, 255, 255); font-family: Consolas, &amp;quot;Courier New&amp;quot;, monospace; font-weight: normal; font-size: 14px; line-height: 19px;&quot;&gt;&lt;div&gt;DELETE_RESOURCE&lt;/div&gt;&lt;/div&gt;" style="ellipse;whiteSpace=wrap;html=1;" vertex="1" parent="hAbh9SorM6jJL6epeVYg-427">
          <mxGeometry x="5220" y="480" width="120" height="80" as="geometry" />
        </mxCell>
        <mxCell id="hAbh9SorM6jJL6epeVYg-459" value="&lt;div style=&quot;color: rgb(59, 59, 59); background-color: rgb(255, 255, 255); font-family: Consolas, &amp;quot;Courier New&amp;quot;, monospace; font-weight: normal; font-size: 14px; line-height: 19px;&quot;&gt;&lt;div&gt;CANCEL&lt;/div&gt;&lt;/div&gt;" style="ellipse;whiteSpace=wrap;html=1;" vertex="1" parent="hAbh9SorM6jJL6epeVYg-427">
          <mxGeometry x="5370" y="480" width="120" height="80" as="geometry" />
        </mxCell>
        <mxCell id="hAbh9SorM6jJL6epeVYg-460" value="&lt;div style=&quot;color: rgb(59, 59, 59); background-color: rgb(255, 255, 255); font-family: Consolas, &amp;quot;Courier New&amp;quot;, monospace; font-weight: normal; font-size: 14px; line-height: 19px;&quot;&gt;&lt;div&gt;ADD_RESOURCE&lt;/div&gt;&lt;/div&gt;" style="ellipse;whiteSpace=wrap;html=1;" vertex="1" parent="hAbh9SorM6jJL6epeVYg-427">
          <mxGeometry x="5520" y="480" width="120" height="80" as="geometry" />
        </mxCell>
        <mxCell id="hAbh9SorM6jJL6epeVYg-461" value="&lt;div style=&quot;color: rgb(59, 59, 59); background-color: rgb(255, 255, 255); font-family: Consolas, &amp;quot;Courier New&amp;quot;, monospace; font-weight: normal; font-size: 14px; line-height: 19px;&quot;&gt;&lt;div&gt;ADD_TAG&lt;/div&gt;&lt;/div&gt;" style="ellipse;whiteSpace=wrap;html=1;" vertex="1" parent="hAbh9SorM6jJL6epeVYg-427">
          <mxGeometry x="5670" y="480" width="120" height="80" as="geometry" />
        </mxCell>
        <mxCell id="hAbh9SorM6jJL6epeVYg-486" style="edgeStyle=orthogonalEdgeStyle;rounded=0;orthogonalLoop=1;jettySize=auto;html=1;entryX=0;entryY=0.5;entryDx=0;entryDy=0;" edge="1" parent="hAbh9SorM6jJL6epeVYg-427" source="hAbh9SorM6jJL6epeVYg-483" target="hAbh9SorM6jJL6epeVYg-0">
          <mxGeometry relative="1" as="geometry">
            <Array as="points">
              <mxPoint x="4375" y="240" />
              <mxPoint x="4375" y="130" />
            </Array>
          </mxGeometry>
        </mxCell>
        <mxCell id="hAbh9SorM6jJL6epeVYg-488" value="" style="edgeStyle=orthogonalEdgeStyle;rounded=0;orthogonalLoop=1;jettySize=auto;html=1;" edge="1" parent="hAbh9SorM6jJL6epeVYg-427" source="hAbh9SorM6jJL6epeVYg-483" target="hAbh9SorM6jJL6epeVYg-484">
          <mxGeometry relative="1" as="geometry" />
        </mxCell>
        <mxCell id="hAbh9SorM6jJL6epeVYg-483" value="start" style="shape=hexagon;perimeter=hexagonPerimeter2;whiteSpace=wrap;html=1;fixedSize=1;" vertex="1" parent="hAbh9SorM6jJL6epeVYg-427">
          <mxGeometry x="4400" y="200" width="120" height="80" as="geometry" />
        </mxCell>
        <mxCell id="hAbh9SorM6jJL6epeVYg-490" style="edgeStyle=orthogonalEdgeStyle;rounded=0;orthogonalLoop=1;jettySize=auto;html=1;entryX=0.5;entryY=0;entryDx=0;entryDy=0;" edge="1" parent="hAbh9SorM6jJL6epeVYg-427" source="hAbh9SorM6jJL6epeVYg-484" target="hAbh9SorM6jJL6epeVYg-440">
          <mxGeometry relative="1" as="geometry" />
        </mxCell>
        <mxCell id="hAbh9SorM6jJL6epeVYg-491" style="edgeStyle=orthogonalEdgeStyle;rounded=0;orthogonalLoop=1;jettySize=auto;html=1;entryX=0.5;entryY=0;entryDx=0;entryDy=0;" edge="1" parent="hAbh9SorM6jJL6epeVYg-427" source="hAbh9SorM6jJL6epeVYg-484" target="hAbh9SorM6jJL6epeVYg-447">
          <mxGeometry relative="1" as="geometry" />
        </mxCell>
        <mxCell id="hAbh9SorM6jJL6epeVYg-492" style="edgeStyle=orthogonalEdgeStyle;rounded=0;orthogonalLoop=1;jettySize=auto;html=1;entryX=0.5;entryY=0;entryDx=0;entryDy=0;" edge="1" parent="hAbh9SorM6jJL6epeVYg-427" source="hAbh9SorM6jJL6epeVYg-484" target="hAbh9SorM6jJL6epeVYg-436">
          <mxGeometry relative="1" as="geometry" />
        </mxCell>
        <mxCell id="hAbh9SorM6jJL6epeVYg-493" style="edgeStyle=orthogonalEdgeStyle;rounded=0;orthogonalLoop=1;jettySize=auto;html=1;entryX=0.5;entryY=0;entryDx=0;entryDy=0;" edge="1" parent="hAbh9SorM6jJL6epeVYg-427" source="hAbh9SorM6jJL6epeVYg-484" target="hAbh9SorM6jJL6epeVYg-448">
          <mxGeometry relative="1" as="geometry" />
        </mxCell>
        <mxCell id="hAbh9SorM6jJL6epeVYg-494" style="edgeStyle=orthogonalEdgeStyle;rounded=0;orthogonalLoop=1;jettySize=auto;html=1;entryX=0.5;entryY=0;entryDx=0;entryDy=0;" edge="1" parent="hAbh9SorM6jJL6epeVYg-427" source="hAbh9SorM6jJL6epeVYg-484" target="hAbh9SorM6jJL6epeVYg-437">
          <mxGeometry relative="1" as="geometry" />
        </mxCell>
        <mxCell id="hAbh9SorM6jJL6epeVYg-495" style="edgeStyle=orthogonalEdgeStyle;rounded=0;orthogonalLoop=1;jettySize=auto;html=1;entryX=0.5;entryY=0;entryDx=0;entryDy=0;" edge="1" parent="hAbh9SorM6jJL6epeVYg-427" source="hAbh9SorM6jJL6epeVYg-484" target="hAbh9SorM6jJL6epeVYg-449">
          <mxGeometry relative="1" as="geometry" />
        </mxCell>
        <mxCell id="hAbh9SorM6jJL6epeVYg-496" style="edgeStyle=orthogonalEdgeStyle;rounded=0;orthogonalLoop=1;jettySize=auto;html=1;" edge="1" parent="hAbh9SorM6jJL6epeVYg-427" source="hAbh9SorM6jJL6epeVYg-484" target="hAbh9SorM6jJL6epeVYg-441">
          <mxGeometry relative="1" as="geometry" />
        </mxCell>
        <mxCell id="hAbh9SorM6jJL6epeVYg-497" style="edgeStyle=orthogonalEdgeStyle;rounded=0;orthogonalLoop=1;jettySize=auto;html=1;entryX=0.5;entryY=0;entryDx=0;entryDy=0;" edge="1" parent="hAbh9SorM6jJL6epeVYg-427" source="hAbh9SorM6jJL6epeVYg-484" target="hAbh9SorM6jJL6epeVYg-438">
          <mxGeometry relative="1" as="geometry" />
        </mxCell>
        <mxCell id="hAbh9SorM6jJL6epeVYg-498" style="edgeStyle=orthogonalEdgeStyle;rounded=0;orthogonalLoop=1;jettySize=auto;html=1;entryX=0.5;entryY=0;entryDx=0;entryDy=0;" edge="1" parent="hAbh9SorM6jJL6epeVYg-427" source="hAbh9SorM6jJL6epeVYg-484" target="hAbh9SorM6jJL6epeVYg-439">
          <mxGeometry relative="1" as="geometry" />
        </mxCell>
        <mxCell id="hAbh9SorM6jJL6epeVYg-499" style="edgeStyle=orthogonalEdgeStyle;rounded=0;orthogonalLoop=1;jettySize=auto;html=1;entryX=0.5;entryY=0;entryDx=0;entryDy=0;" edge="1" parent="hAbh9SorM6jJL6epeVYg-427" source="hAbh9SorM6jJL6epeVYg-484" target="hAbh9SorM6jJL6epeVYg-444">
          <mxGeometry relative="1" as="geometry" />
        </mxCell>
        <mxCell id="hAbh9SorM6jJL6epeVYg-500" style="edgeStyle=orthogonalEdgeStyle;rounded=0;orthogonalLoop=1;jettySize=auto;html=1;entryX=0.5;entryY=0;entryDx=0;entryDy=0;" edge="1" parent="hAbh9SorM6jJL6epeVYg-427" source="hAbh9SorM6jJL6epeVYg-484" target="hAbh9SorM6jJL6epeVYg-445">
          <mxGeometry relative="1" as="geometry" />
        </mxCell>
        <mxCell id="hAbh9SorM6jJL6epeVYg-501" style="edgeStyle=orthogonalEdgeStyle;rounded=0;orthogonalLoop=1;jettySize=auto;html=1;entryX=0.5;entryY=0;entryDx=0;entryDy=0;" edge="1" parent="hAbh9SorM6jJL6epeVYg-427" source="hAbh9SorM6jJL6epeVYg-484" target="hAbh9SorM6jJL6epeVYg-446">
          <mxGeometry relative="1" as="geometry" />
        </mxCell>
        <mxCell id="hAbh9SorM6jJL6epeVYg-502" style="edgeStyle=orthogonalEdgeStyle;rounded=0;orthogonalLoop=1;jettySize=auto;html=1;entryX=0.5;entryY=0;entryDx=0;entryDy=0;" edge="1" parent="hAbh9SorM6jJL6epeVYg-427" source="hAbh9SorM6jJL6epeVYg-484" target="hAbh9SorM6jJL6epeVYg-456">
          <mxGeometry relative="1" as="geometry" />
        </mxCell>
        <mxCell id="hAbh9SorM6jJL6epeVYg-503" style="edgeStyle=orthogonalEdgeStyle;rounded=0;orthogonalLoop=1;jettySize=auto;html=1;entryX=0.5;entryY=0;entryDx=0;entryDy=0;" edge="1" parent="hAbh9SorM6jJL6epeVYg-427" source="hAbh9SorM6jJL6epeVYg-484" target="hAbh9SorM6jJL6epeVYg-457">
          <mxGeometry relative="1" as="geometry" />
        </mxCell>
        <mxCell id="hAbh9SorM6jJL6epeVYg-504" style="edgeStyle=orthogonalEdgeStyle;rounded=0;orthogonalLoop=1;jettySize=auto;html=1;entryX=0.5;entryY=0;entryDx=0;entryDy=0;" edge="1" parent="hAbh9SorM6jJL6epeVYg-427" source="hAbh9SorM6jJL6epeVYg-484" target="hAbh9SorM6jJL6epeVYg-458">
          <mxGeometry relative="1" as="geometry" />
        </mxCell>
        <mxCell id="hAbh9SorM6jJL6epeVYg-505" style="edgeStyle=orthogonalEdgeStyle;rounded=0;orthogonalLoop=1;jettySize=auto;html=1;entryX=0.5;entryY=0;entryDx=0;entryDy=0;" edge="1" parent="hAbh9SorM6jJL6epeVYg-427" source="hAbh9SorM6jJL6epeVYg-484" target="hAbh9SorM6jJL6epeVYg-459">
          <mxGeometry relative="1" as="geometry" />
        </mxCell>
        <mxCell id="hAbh9SorM6jJL6epeVYg-506" style="edgeStyle=orthogonalEdgeStyle;rounded=0;orthogonalLoop=1;jettySize=auto;html=1;entryX=0.5;entryY=0;entryDx=0;entryDy=0;" edge="1" parent="hAbh9SorM6jJL6epeVYg-427" source="hAbh9SorM6jJL6epeVYg-484" target="hAbh9SorM6jJL6epeVYg-460">
          <mxGeometry relative="1" as="geometry" />
        </mxCell>
        <mxCell id="hAbh9SorM6jJL6epeVYg-507" style="edgeStyle=orthogonalEdgeStyle;rounded=0;orthogonalLoop=1;jettySize=auto;html=1;entryX=0.5;entryY=0;entryDx=0;entryDy=0;" edge="1" parent="hAbh9SorM6jJL6epeVYg-427" source="hAbh9SorM6jJL6epeVYg-484" target="hAbh9SorM6jJL6epeVYg-461">
          <mxGeometry relative="1" as="geometry" />
        </mxCell>
        <mxCell id="hAbh9SorM6jJL6epeVYg-484" value="View" style="rounded=1;whiteSpace=wrap;html=1;" vertex="1" parent="hAbh9SorM6jJL6epeVYg-427">
          <mxGeometry x="4400" y="320" width="120" height="60" as="geometry" />
        </mxCell>
        <mxCell id="hAbh9SorM6jJL6epeVYg-512" value="" style="edgeStyle=orthogonalEdgeStyle;rounded=0;orthogonalLoop=1;jettySize=auto;html=1;" edge="1" parent="hAbh9SorM6jJL6epeVYg-427" source="hAbh9SorM6jJL6epeVYg-508" target="hAbh9SorM6jJL6epeVYg-511">
          <mxGeometry relative="1" as="geometry" />
        </mxCell>
        <mxCell id="hAbh9SorM6jJL6epeVYg-508" value="&lt;div style=&quot;color: rgb(59, 59, 59); background-color: rgb(255, 255, 255); font-family: Consolas, &amp;quot;Courier New&amp;quot;, monospace; font-weight: normal; font-size: 14px; line-height: 19px;&quot;&gt;&lt;div&gt;edit_task&lt;/div&gt;&lt;/div&gt;" style="shape=hexagon;perimeter=hexagonPerimeter2;whiteSpace=wrap;html=1;fixedSize=1;" vertex="1" parent="hAbh9SorM6jJL6epeVYg-427">
          <mxGeometry x="500" y="610" width="120" height="80" as="geometry" />
        </mxCell>
        <mxCell id="hAbh9SorM6jJL6epeVYg-514" style="edgeStyle=orthogonalEdgeStyle;rounded=0;orthogonalLoop=1;jettySize=auto;html=1;entryX=0.5;entryY=0;entryDx=0;entryDy=0;" edge="1" parent="hAbh9SorM6jJL6epeVYg-427" source="hAbh9SorM6jJL6epeVYg-511" target="hAbh9SorM6jJL6epeVYg-513">
          <mxGeometry relative="1" as="geometry" />
        </mxCell>
        <mxCell id="hAbh9SorM6jJL6epeVYg-511" value="&lt;div style=&quot;color: rgb(59, 59, 59); background-color: rgb(255, 255, 255); font-family: Consolas, &amp;quot;Courier New&amp;quot;, monospace; font-weight: normal; font-size: 14px; line-height: 19px;&quot;&gt;&lt;div&gt;CREATE_TASK&lt;/div&gt;&lt;/div&gt;" style="rounded=1;whiteSpace=wrap;html=1;" vertex="1" parent="hAbh9SorM6jJL6epeVYg-427">
          <mxGeometry x="500" y="740" width="120" height="60" as="geometry" />
        </mxCell>
        <mxCell id="hAbh9SorM6jJL6epeVYg-795" style="edgeStyle=orthogonalEdgeStyle;rounded=0;orthogonalLoop=1;jettySize=auto;html=1;exitX=0.5;exitY=1;exitDx=0;exitDy=0;entryX=0.5;entryY=1;entryDx=0;entryDy=0;" edge="1" parent="hAbh9SorM6jJL6epeVYg-427" source="hAbh9SorM6jJL6epeVYg-513" target="hAbh9SorM6jJL6epeVYg-427">
          <mxGeometry relative="1" as="geometry">
            <Array as="points">
              <mxPoint x="560" y="2670" />
              <mxPoint x="3265" y="2670" />
            </Array>
          </mxGeometry>
        </mxCell>
        <mxCell id="hAbh9SorM6jJL6epeVYg-513" value="&lt;div style=&quot;color: rgb(59, 59, 59); background-color: rgb(255, 255, 255); font-family: Consolas, &amp;quot;Courier New&amp;quot;, monospace; font-weight: normal; font-size: 14px; line-height: 19px;&quot;&gt;&lt;div&gt;create_task_conv&lt;/div&gt;&lt;/div&gt;" style="swimlane;whiteSpace=wrap;html=1;" vertex="1" parent="hAbh9SorM6jJL6epeVYg-427">
          <mxGeometry x="90" y="880" width="940" height="1680" as="geometry" />
        </mxCell>
        <mxCell id="hAbh9SorM6jJL6epeVYg-577" value="" style="edgeStyle=orthogonalEdgeStyle;rounded=0;orthogonalLoop=1;jettySize=auto;html=1;" edge="1" parent="hAbh9SorM6jJL6epeVYg-513" source="hAbh9SorM6jJL6epeVYg-515" target="hAbh9SorM6jJL6epeVYg-518">
          <mxGeometry relative="1" as="geometry" />
        </mxCell>
        <mxCell id="hAbh9SorM6jJL6epeVYg-515" value="" style="shape=callout;whiteSpace=wrap;html=1;perimeter=calloutPerimeter;" vertex="1" parent="hAbh9SorM6jJL6epeVYg-513">
          <mxGeometry x="185" y="60" width="120" height="80" as="geometry" />
        </mxCell>
        <mxCell id="hAbh9SorM6jJL6epeVYg-618" value="" style="edgeStyle=orthogonalEdgeStyle;rounded=0;orthogonalLoop=1;jettySize=auto;html=1;" edge="1" parent="hAbh9SorM6jJL6epeVYg-513" source="hAbh9SorM6jJL6epeVYg-516" target="hAbh9SorM6jJL6epeVYg-519">
          <mxGeometry relative="1" as="geometry" />
        </mxCell>
        <mxCell id="hAbh9SorM6jJL6epeVYg-516" value="&lt;div style=&quot;color: rgb(59, 59, 59); background-color: rgb(255, 255, 255); font-family: Consolas, &amp;quot;Courier New&amp;quot;, monospace; font-weight: normal; font-size: 14px; line-height: 19px;&quot;&gt;&lt;div&gt;skip&lt;/div&gt;&lt;/div&gt;" style="ellipse;whiteSpace=wrap;html=1;aspect=fixed;" vertex="1" parent="hAbh9SorM6jJL6epeVYg-513">
          <mxGeometry x="435" y="50" width="80" height="80" as="geometry" />
        </mxCell>
        <mxCell id="hAbh9SorM6jJL6epeVYg-619" value="" style="edgeStyle=orthogonalEdgeStyle;rounded=0;orthogonalLoop=1;jettySize=auto;html=1;" edge="1" parent="hAbh9SorM6jJL6epeVYg-513" source="hAbh9SorM6jJL6epeVYg-517" target="hAbh9SorM6jJL6epeVYg-575">
          <mxGeometry relative="1" as="geometry" />
        </mxCell>
        <mxCell id="hAbh9SorM6jJL6epeVYg-517" value="&lt;div style=&quot;color: rgb(59, 59, 59); background-color: rgb(255, 255, 255); font-family: Consolas, &amp;quot;Courier New&amp;quot;, monospace; font-weight: normal; font-size: 14px; line-height: 19px;&quot;&gt;&lt;div&gt;cancel&lt;/div&gt;&lt;/div&gt;" style="ellipse;whiteSpace=wrap;html=1;aspect=fixed;" vertex="1" parent="hAbh9SorM6jJL6epeVYg-513">
          <mxGeometry x="655" y="50" width="80" height="80" as="geometry" />
        </mxCell>
        <mxCell id="hAbh9SorM6jJL6epeVYg-578" value="" style="edgeStyle=orthogonalEdgeStyle;rounded=0;orthogonalLoop=1;jettySize=auto;html=1;" edge="1" parent="hAbh9SorM6jJL6epeVYg-513" source="hAbh9SorM6jJL6epeVYg-518" target="hAbh9SorM6jJL6epeVYg-576">
          <mxGeometry relative="1" as="geometry" />
        </mxCell>
        <mxCell id="hAbh9SorM6jJL6epeVYg-518" value="&lt;div style=&quot;color: rgb(59, 59, 59); background-color: rgb(255, 255, 255); font-family: Consolas, &amp;quot;Courier New&amp;quot;, monospace; font-weight: normal; font-size: 14px; line-height: 19px;&quot;&gt;&lt;div&gt;add_summary&lt;/div&gt;&lt;/div&gt;" style="shape=hexagon;perimeter=hexagonPerimeter2;whiteSpace=wrap;html=1;fixedSize=1;" vertex="1" parent="hAbh9SorM6jJL6epeVYg-513">
          <mxGeometry x="185" y="181" width="120" height="80" as="geometry" />
        </mxCell>
        <mxCell id="hAbh9SorM6jJL6epeVYg-620" style="edgeStyle=orthogonalEdgeStyle;rounded=0;orthogonalLoop=1;jettySize=auto;html=1;entryX=1;entryY=0.5;entryDx=0;entryDy=0;" edge="1" parent="hAbh9SorM6jJL6epeVYg-513" source="hAbh9SorM6jJL6epeVYg-519" target="hAbh9SorM6jJL6epeVYg-576">
          <mxGeometry relative="1" as="geometry" />
        </mxCell>
        <mxCell id="hAbh9SorM6jJL6epeVYg-519" value="&lt;div style=&quot;color: rgb(59, 59, 59); background-color: rgb(255, 255, 255); font-family: Consolas, &amp;quot;Courier New&amp;quot;, monospace; font-weight: normal; font-size: 14px; line-height: 19px;&quot;&gt;&lt;div&gt;skip_summary&lt;/div&gt;&lt;/div&gt;" style="shape=hexagon;perimeter=hexagonPerimeter2;whiteSpace=wrap;html=1;fixedSize=1;" vertex="1" parent="hAbh9SorM6jJL6epeVYg-513">
          <mxGeometry x="415" y="170" width="120" height="80" as="geometry" />
        </mxCell>
        <mxCell id="hAbh9SorM6jJL6epeVYg-621" style="edgeStyle=orthogonalEdgeStyle;rounded=0;orthogonalLoop=1;jettySize=auto;html=1;entryX=0.5;entryY=1;entryDx=0;entryDy=0;exitX=1;exitY=0.5;exitDx=0;exitDy=0;" edge="1" parent="hAbh9SorM6jJL6epeVYg-513" source="hAbh9SorM6jJL6epeVYg-575" target="hAbh9SorM6jJL6epeVYg-513">
          <mxGeometry relative="1" as="geometry">
            <Array as="points">
              <mxPoint x="830" y="210" />
              <mxPoint x="830" y="1600" />
              <mxPoint x="470" y="1600" />
            </Array>
          </mxGeometry>
        </mxCell>
        <mxCell id="hAbh9SorM6jJL6epeVYg-575" value="&lt;div style=&quot;color: rgb(59, 59, 59); background-color: rgb(255, 255, 255); font-family: Consolas, &amp;quot;Courier New&amp;quot;, monospace; font-weight: normal; font-size: 14px; line-height: 19px;&quot;&gt;&lt;div&gt;insert_cancel&lt;/div&gt;&lt;/div&gt;" style="shape=hexagon;perimeter=hexagonPerimeter2;whiteSpace=wrap;html=1;fixedSize=1;" vertex="1" parent="hAbh9SorM6jJL6epeVYg-513">
          <mxGeometry x="635" y="170" width="120" height="80" as="geometry" />
        </mxCell>
        <mxCell id="hAbh9SorM6jJL6epeVYg-581" style="edgeStyle=orthogonalEdgeStyle;rounded=0;orthogonalLoop=1;jettySize=auto;html=1;" edge="1" parent="hAbh9SorM6jJL6epeVYg-513" source="hAbh9SorM6jJL6epeVYg-576" target="hAbh9SorM6jJL6epeVYg-579">
          <mxGeometry relative="1" as="geometry" />
        </mxCell>
        <mxCell id="hAbh9SorM6jJL6epeVYg-582" style="edgeStyle=orthogonalEdgeStyle;rounded=0;orthogonalLoop=1;jettySize=auto;html=1;entryX=0.5;entryY=0;entryDx=0;entryDy=0;" edge="1" parent="hAbh9SorM6jJL6epeVYg-513" source="hAbh9SorM6jJL6epeVYg-576" target="hAbh9SorM6jJL6epeVYg-580">
          <mxGeometry relative="1" as="geometry" />
        </mxCell>
        <mxCell id="hAbh9SorM6jJL6epeVYg-576" value="&lt;div style=&quot;color: rgb(59, 59, 59); background-color: rgb(255, 255, 255); font-family: Consolas, &amp;quot;Courier New&amp;quot;, monospace; font-weight: normal; font-size: 14px; line-height: 19px;&quot;&gt;&lt;div&gt;DESCRIPTION&lt;/div&gt;&lt;/div&gt;" style="rounded=1;whiteSpace=wrap;html=1;" vertex="1" parent="hAbh9SorM6jJL6epeVYg-513">
          <mxGeometry x="185" y="300" width="120" height="60" as="geometry" />
        </mxCell>
        <mxCell id="hAbh9SorM6jJL6epeVYg-585" value="" style="edgeStyle=orthogonalEdgeStyle;rounded=0;orthogonalLoop=1;jettySize=auto;html=1;" edge="1" parent="hAbh9SorM6jJL6epeVYg-513" source="hAbh9SorM6jJL6epeVYg-579" target="hAbh9SorM6jJL6epeVYg-583">
          <mxGeometry relative="1" as="geometry" />
        </mxCell>
        <mxCell id="hAbh9SorM6jJL6epeVYg-579" value="" style="shape=callout;whiteSpace=wrap;html=1;perimeter=calloutPerimeter;" vertex="1" parent="hAbh9SorM6jJL6epeVYg-513">
          <mxGeometry x="100" y="400" width="120" height="80" as="geometry" />
        </mxCell>
        <mxCell id="hAbh9SorM6jJL6epeVYg-586" value="" style="edgeStyle=orthogonalEdgeStyle;rounded=0;orthogonalLoop=1;jettySize=auto;html=1;" edge="1" parent="hAbh9SorM6jJL6epeVYg-513" source="hAbh9SorM6jJL6epeVYg-580" target="hAbh9SorM6jJL6epeVYg-584">
          <mxGeometry relative="1" as="geometry" />
        </mxCell>
        <mxCell id="hAbh9SorM6jJL6epeVYg-580" value="&lt;div style=&quot;color: rgb(59, 59, 59); background-color: rgb(255, 255, 255); font-family: Consolas, &amp;quot;Courier New&amp;quot;, monospace; font-weight: normal; font-size: 14px; line-height: 19px;&quot;&gt;&lt;div&gt;skip&lt;/div&gt;&lt;/div&gt;" style="ellipse;whiteSpace=wrap;html=1;aspect=fixed;" vertex="1" parent="hAbh9SorM6jJL6epeVYg-513">
          <mxGeometry x="305" y="400" width="80" height="80" as="geometry" />
        </mxCell>
        <mxCell id="hAbh9SorM6jJL6epeVYg-589" style="edgeStyle=orthogonalEdgeStyle;rounded=0;orthogonalLoop=1;jettySize=auto;html=1;entryX=0;entryY=0.5;entryDx=0;entryDy=0;" edge="1" parent="hAbh9SorM6jJL6epeVYg-513" source="hAbh9SorM6jJL6epeVYg-583" target="hAbh9SorM6jJL6epeVYg-587">
          <mxGeometry relative="1" as="geometry" />
        </mxCell>
        <mxCell id="hAbh9SorM6jJL6epeVYg-583" value="&lt;div style=&quot;color: rgb(59, 59, 59); background-color: rgb(255, 255, 255); font-family: Consolas, &amp;quot;Courier New&amp;quot;, monospace; font-weight: normal; font-size: 14px; line-height: 19px;&quot;&gt;&lt;div&gt;add_description&lt;/div&gt;&lt;/div&gt;" style="shape=hexagon;perimeter=hexagonPerimeter2;whiteSpace=wrap;html=1;fixedSize=1;" vertex="1" parent="hAbh9SorM6jJL6epeVYg-513">
          <mxGeometry x="100" y="510" width="120" height="80" as="geometry" />
        </mxCell>
        <mxCell id="hAbh9SorM6jJL6epeVYg-588" style="edgeStyle=orthogonalEdgeStyle;rounded=0;orthogonalLoop=1;jettySize=auto;html=1;entryX=1;entryY=0.5;entryDx=0;entryDy=0;" edge="1" parent="hAbh9SorM6jJL6epeVYg-513" source="hAbh9SorM6jJL6epeVYg-584" target="hAbh9SorM6jJL6epeVYg-587">
          <mxGeometry relative="1" as="geometry" />
        </mxCell>
        <mxCell id="hAbh9SorM6jJL6epeVYg-584" value="&lt;div style=&quot;color: rgb(59, 59, 59); background-color: rgb(255, 255, 255); font-family: Consolas, &amp;quot;Courier New&amp;quot;, monospace; font-weight: normal; font-size: 14px; line-height: 19px;&quot;&gt;&lt;div&gt;skip_description&lt;/div&gt;&lt;/div&gt;" style="shape=hexagon;perimeter=hexagonPerimeter2;whiteSpace=wrap;html=1;fixedSize=1;" vertex="1" parent="hAbh9SorM6jJL6epeVYg-513">
          <mxGeometry x="285" y="510" width="120" height="80" as="geometry" />
        </mxCell>
        <mxCell id="hAbh9SorM6jJL6epeVYg-596" style="edgeStyle=orthogonalEdgeStyle;rounded=0;orthogonalLoop=1;jettySize=auto;html=1;entryX=0.5;entryY=0;entryDx=0;entryDy=0;entryPerimeter=0;" edge="1" parent="hAbh9SorM6jJL6epeVYg-513" source="hAbh9SorM6jJL6epeVYg-587" target="hAbh9SorM6jJL6epeVYg-591">
          <mxGeometry relative="1" as="geometry" />
        </mxCell>
        <mxCell id="hAbh9SorM6jJL6epeVYg-597" style="edgeStyle=orthogonalEdgeStyle;rounded=0;orthogonalLoop=1;jettySize=auto;html=1;entryX=0.5;entryY=0;entryDx=0;entryDy=0;" edge="1" parent="hAbh9SorM6jJL6epeVYg-513" source="hAbh9SorM6jJL6epeVYg-587" target="hAbh9SorM6jJL6epeVYg-593">
          <mxGeometry relative="1" as="geometry" />
        </mxCell>
        <mxCell id="hAbh9SorM6jJL6epeVYg-587" value="&lt;div style=&quot;color: rgb(59, 59, 59); background-color: rgb(255, 255, 255); font-family: Consolas, &amp;quot;Courier New&amp;quot;, monospace; font-weight: normal; font-size: 14px; line-height: 19px;&quot;&gt;&lt;div&gt;DATE&lt;/div&gt;&lt;/div&gt;" style="rounded=1;whiteSpace=wrap;html=1;" vertex="1" parent="hAbh9SorM6jJL6epeVYg-513">
          <mxGeometry x="185" y="630" width="120" height="60" as="geometry" />
        </mxCell>
        <mxCell id="hAbh9SorM6jJL6epeVYg-590" value="" style="edgeStyle=orthogonalEdgeStyle;rounded=0;orthogonalLoop=1;jettySize=auto;html=1;" edge="1" source="hAbh9SorM6jJL6epeVYg-591" target="hAbh9SorM6jJL6epeVYg-594" parent="hAbh9SorM6jJL6epeVYg-513">
          <mxGeometry relative="1" as="geometry" />
        </mxCell>
        <mxCell id="hAbh9SorM6jJL6epeVYg-591" value="" style="shape=callout;whiteSpace=wrap;html=1;perimeter=calloutPerimeter;" vertex="1" parent="hAbh9SorM6jJL6epeVYg-513">
          <mxGeometry x="100" y="730" width="120" height="80" as="geometry" />
        </mxCell>
        <mxCell id="hAbh9SorM6jJL6epeVYg-592" value="" style="edgeStyle=orthogonalEdgeStyle;rounded=0;orthogonalLoop=1;jettySize=auto;html=1;" edge="1" source="hAbh9SorM6jJL6epeVYg-593" target="hAbh9SorM6jJL6epeVYg-595" parent="hAbh9SorM6jJL6epeVYg-513">
          <mxGeometry relative="1" as="geometry" />
        </mxCell>
        <mxCell id="hAbh9SorM6jJL6epeVYg-593" value="&lt;div style=&quot;color: rgb(59, 59, 59); background-color: rgb(255, 255, 255); font-family: Consolas, &amp;quot;Courier New&amp;quot;, monospace; font-weight: normal; font-size: 14px; line-height: 19px;&quot;&gt;&lt;div&gt;skip&lt;/div&gt;&lt;/div&gt;" style="ellipse;whiteSpace=wrap;html=1;aspect=fixed;" vertex="1" parent="hAbh9SorM6jJL6epeVYg-513">
          <mxGeometry x="305" y="730" width="80" height="80" as="geometry" />
        </mxCell>
        <mxCell id="hAbh9SorM6jJL6epeVYg-608" style="edgeStyle=orthogonalEdgeStyle;rounded=0;orthogonalLoop=1;jettySize=auto;html=1;entryX=0;entryY=0.5;entryDx=0;entryDy=0;" edge="1" parent="hAbh9SorM6jJL6epeVYg-513" source="hAbh9SorM6jJL6epeVYg-594" target="hAbh9SorM6jJL6epeVYg-600">
          <mxGeometry relative="1" as="geometry" />
        </mxCell>
        <mxCell id="hAbh9SorM6jJL6epeVYg-594" value="&lt;div style=&quot;color: rgb(59, 59, 59); background-color: rgb(255, 255, 255); font-family: Consolas, &amp;quot;Courier New&amp;quot;, monospace; font-weight: normal; font-size: 14px; line-height: 19px;&quot;&gt;&lt;div&gt;add_due&lt;/div&gt;&lt;/div&gt;" style="shape=hexagon;perimeter=hexagonPerimeter2;whiteSpace=wrap;html=1;fixedSize=1;" vertex="1" parent="hAbh9SorM6jJL6epeVYg-513">
          <mxGeometry x="100" y="840" width="120" height="80" as="geometry" />
        </mxCell>
        <mxCell id="hAbh9SorM6jJL6epeVYg-607" style="edgeStyle=orthogonalEdgeStyle;rounded=0;orthogonalLoop=1;jettySize=auto;html=1;entryX=1;entryY=0.5;entryDx=0;entryDy=0;" edge="1" parent="hAbh9SorM6jJL6epeVYg-513" source="hAbh9SorM6jJL6epeVYg-595" target="hAbh9SorM6jJL6epeVYg-600">
          <mxGeometry relative="1" as="geometry" />
        </mxCell>
        <mxCell id="hAbh9SorM6jJL6epeVYg-595" value="&lt;div style=&quot;color: rgb(59, 59, 59); background-color: rgb(255, 255, 255); font-family: Consolas, &amp;quot;Courier New&amp;quot;, monospace; font-weight: normal; font-size: 14px; line-height: 19px;&quot;&gt;&lt;div&gt;skip_due&lt;/div&gt;&lt;/div&gt;" style="shape=hexagon;perimeter=hexagonPerimeter2;whiteSpace=wrap;html=1;fixedSize=1;" vertex="1" parent="hAbh9SorM6jJL6epeVYg-513">
          <mxGeometry x="285" y="840" width="120" height="80" as="geometry" />
        </mxCell>
        <mxCell id="hAbh9SorM6jJL6epeVYg-598" style="edgeStyle=orthogonalEdgeStyle;rounded=0;orthogonalLoop=1;jettySize=auto;html=1;entryX=0.5;entryY=0;entryDx=0;entryDy=0;entryPerimeter=0;" edge="1" source="hAbh9SorM6jJL6epeVYg-600" target="hAbh9SorM6jJL6epeVYg-602" parent="hAbh9SorM6jJL6epeVYg-513">
          <mxGeometry relative="1" as="geometry" />
        </mxCell>
        <mxCell id="hAbh9SorM6jJL6epeVYg-599" style="edgeStyle=orthogonalEdgeStyle;rounded=0;orthogonalLoop=1;jettySize=auto;html=1;entryX=0.5;entryY=0;entryDx=0;entryDy=0;" edge="1" source="hAbh9SorM6jJL6epeVYg-600" target="hAbh9SorM6jJL6epeVYg-604" parent="hAbh9SorM6jJL6epeVYg-513">
          <mxGeometry relative="1" as="geometry" />
        </mxCell>
        <mxCell id="hAbh9SorM6jJL6epeVYg-600" value="&lt;div style=&quot;color: rgb(59, 59, 59); background-color: rgb(255, 255, 255); font-family: Consolas, &amp;quot;Courier New&amp;quot;, monospace; font-weight: normal; font-size: 14px; line-height: 19px;&quot;&gt;&lt;div&gt;&lt;div style=&quot;color: rgb(59, 59, 59); background-color: rgb(255, 255, 255); font-family: Consolas, &amp;quot;Courier New&amp;quot;, monospace; font-weight: normal; font-size: 14px; line-height: 19px;&quot;&gt;&lt;div&gt;FREQUENCY&lt;/div&gt;&lt;/div&gt;&lt;/div&gt;&lt;/div&gt;" style="rounded=1;whiteSpace=wrap;html=1;" vertex="1" parent="hAbh9SorM6jJL6epeVYg-513">
          <mxGeometry x="185" y="960" width="120" height="60" as="geometry" />
        </mxCell>
        <mxCell id="hAbh9SorM6jJL6epeVYg-601" value="" style="edgeStyle=orthogonalEdgeStyle;rounded=0;orthogonalLoop=1;jettySize=auto;html=1;" edge="1" source="hAbh9SorM6jJL6epeVYg-602" target="hAbh9SorM6jJL6epeVYg-605" parent="hAbh9SorM6jJL6epeVYg-513">
          <mxGeometry relative="1" as="geometry" />
        </mxCell>
        <mxCell id="hAbh9SorM6jJL6epeVYg-602" value="" style="shape=callout;whiteSpace=wrap;html=1;perimeter=calloutPerimeter;" vertex="1" parent="hAbh9SorM6jJL6epeVYg-513">
          <mxGeometry x="100" y="1060" width="120" height="80" as="geometry" />
        </mxCell>
        <mxCell id="hAbh9SorM6jJL6epeVYg-603" value="" style="edgeStyle=orthogonalEdgeStyle;rounded=0;orthogonalLoop=1;jettySize=auto;html=1;" edge="1" source="hAbh9SorM6jJL6epeVYg-604" target="hAbh9SorM6jJL6epeVYg-606" parent="hAbh9SorM6jJL6epeVYg-513">
          <mxGeometry relative="1" as="geometry" />
        </mxCell>
        <mxCell id="hAbh9SorM6jJL6epeVYg-604" value="&lt;div style=&quot;color: rgb(59, 59, 59); background-color: rgb(255, 255, 255); font-family: Consolas, &amp;quot;Courier New&amp;quot;, monospace; font-weight: normal; font-size: 14px; line-height: 19px;&quot;&gt;&lt;div&gt;skip&lt;/div&gt;&lt;/div&gt;" style="ellipse;whiteSpace=wrap;html=1;aspect=fixed;" vertex="1" parent="hAbh9SorM6jJL6epeVYg-513">
          <mxGeometry x="305" y="1060" width="80" height="80" as="geometry" />
        </mxCell>
        <mxCell id="hAbh9SorM6jJL6epeVYg-611" style="edgeStyle=orthogonalEdgeStyle;rounded=0;orthogonalLoop=1;jettySize=auto;html=1;entryX=0;entryY=0.5;entryDx=0;entryDy=0;" edge="1" parent="hAbh9SorM6jJL6epeVYg-513" source="hAbh9SorM6jJL6epeVYg-605" target="hAbh9SorM6jJL6epeVYg-609">
          <mxGeometry relative="1" as="geometry" />
        </mxCell>
        <mxCell id="hAbh9SorM6jJL6epeVYg-605" value="&lt;div style=&quot;color: rgb(59, 59, 59); background-color: rgb(255, 255, 255); font-family: Consolas, &amp;quot;Courier New&amp;quot;, monospace; font-weight: normal; font-size: 14px; line-height: 19px;&quot;&gt;&lt;div&gt;&lt;div style=&quot;color: rgb(59, 59, 59); background-color: rgb(255, 255, 255); font-family: Consolas, &amp;quot;Courier New&amp;quot;, monospace; font-weight: normal; font-size: 14px; line-height: 19px;&quot;&gt;&lt;div&gt;add_frequency&lt;/div&gt;&lt;/div&gt;&lt;/div&gt;&lt;/div&gt;" style="shape=hexagon;perimeter=hexagonPerimeter2;whiteSpace=wrap;html=1;fixedSize=1;" vertex="1" parent="hAbh9SorM6jJL6epeVYg-513">
          <mxGeometry x="100" y="1170" width="120" height="80" as="geometry" />
        </mxCell>
        <mxCell id="hAbh9SorM6jJL6epeVYg-610" style="edgeStyle=orthogonalEdgeStyle;rounded=0;orthogonalLoop=1;jettySize=auto;html=1;entryX=1;entryY=0.5;entryDx=0;entryDy=0;" edge="1" parent="hAbh9SorM6jJL6epeVYg-513" source="hAbh9SorM6jJL6epeVYg-606" target="hAbh9SorM6jJL6epeVYg-609">
          <mxGeometry relative="1" as="geometry" />
        </mxCell>
        <mxCell id="hAbh9SorM6jJL6epeVYg-606" value="&lt;div style=&quot;color: rgb(59, 59, 59); background-color: rgb(255, 255, 255); font-family: Consolas, &amp;quot;Courier New&amp;quot;, monospace; font-weight: normal; font-size: 14px; line-height: 19px;&quot;&gt;&lt;div&gt;&lt;div style=&quot;color: rgb(59, 59, 59); background-color: rgb(255, 255, 255); font-family: Consolas, &amp;quot;Courier New&amp;quot;, monospace; font-weight: normal; font-size: 14px; line-height: 19px;&quot;&gt;&lt;div&gt;skip_frequency&lt;/div&gt;&lt;/div&gt;&lt;/div&gt;&lt;/div&gt;" style="shape=hexagon;perimeter=hexagonPerimeter2;whiteSpace=wrap;html=1;fixedSize=1;" vertex="1" parent="hAbh9SorM6jJL6epeVYg-513">
          <mxGeometry x="285" y="1170" width="120" height="80" as="geometry" />
        </mxCell>
        <mxCell id="hAbh9SorM6jJL6epeVYg-614" value="" style="edgeStyle=orthogonalEdgeStyle;rounded=0;orthogonalLoop=1;jettySize=auto;html=1;" edge="1" parent="hAbh9SorM6jJL6epeVYg-513" source="hAbh9SorM6jJL6epeVYg-609" target="hAbh9SorM6jJL6epeVYg-612">
          <mxGeometry relative="1" as="geometry" />
        </mxCell>
        <mxCell id="hAbh9SorM6jJL6epeVYg-609" value="&lt;div style=&quot;color: rgb(59, 59, 59); background-color: rgb(255, 255, 255); font-family: Consolas, &amp;quot;Courier New&amp;quot;, monospace; font-weight: normal; font-size: 14px; line-height: 19px;&quot;&gt;&lt;div&gt;&lt;div style=&quot;color: rgb(59, 59, 59); background-color: rgb(255, 255, 255); font-family: Consolas, &amp;quot;Courier New&amp;quot;, monospace; font-weight: normal; font-size: 14px; line-height: 19px;&quot;&gt;&lt;div&gt;&lt;div style=&quot;color: rgb(59, 59, 59); background-color: rgb(255, 255, 255); font-family: Consolas, &amp;quot;Courier New&amp;quot;, monospace; font-weight: normal; font-size: 14px; line-height: 19px;&quot;&gt;&lt;div&gt;CONFIRM&lt;/div&gt;&lt;/div&gt;&lt;/div&gt;&lt;/div&gt;&lt;/div&gt;&lt;/div&gt;" style="rounded=1;whiteSpace=wrap;html=1;" vertex="1" parent="hAbh9SorM6jJL6epeVYg-513">
          <mxGeometry x="185" y="1290" width="120" height="60" as="geometry" />
        </mxCell>
        <mxCell id="hAbh9SorM6jJL6epeVYg-615" value="" style="edgeStyle=orthogonalEdgeStyle;rounded=0;orthogonalLoop=1;jettySize=auto;html=1;" edge="1" parent="hAbh9SorM6jJL6epeVYg-513" source="hAbh9SorM6jJL6epeVYg-612" target="hAbh9SorM6jJL6epeVYg-613">
          <mxGeometry relative="1" as="geometry" />
        </mxCell>
        <mxCell id="hAbh9SorM6jJL6epeVYg-612" value="&lt;div style=&quot;color: rgb(59, 59, 59); background-color: rgb(255, 255, 255); font-family: Consolas, &amp;quot;Courier New&amp;quot;, monospace; font-weight: normal; font-size: 14px; line-height: 19px;&quot;&gt;&lt;div&gt;&lt;div style=&quot;color: rgb(59, 59, 59); background-color: rgb(255, 255, 255); font-family: Consolas, &amp;quot;Courier New&amp;quot;, monospace; font-weight: normal; font-size: 14px; line-height: 19px;&quot;&gt;&lt;div&gt;confirm&lt;/div&gt;&lt;/div&gt;&lt;/div&gt;&lt;/div&gt;" style="ellipse;whiteSpace=wrap;html=1;aspect=fixed;" vertex="1" parent="hAbh9SorM6jJL6epeVYg-513">
          <mxGeometry x="205" y="1380" width="80" height="80" as="geometry" />
        </mxCell>
        <mxCell id="hAbh9SorM6jJL6epeVYg-617" style="edgeStyle=orthogonalEdgeStyle;rounded=0;orthogonalLoop=1;jettySize=auto;html=1;entryX=0.5;entryY=1;entryDx=0;entryDy=0;" edge="1" parent="hAbh9SorM6jJL6epeVYg-513" source="hAbh9SorM6jJL6epeVYg-613" target="hAbh9SorM6jJL6epeVYg-575">
          <mxGeometry relative="1" as="geometry" />
        </mxCell>
        <mxCell id="hAbh9SorM6jJL6epeVYg-613" value="&lt;div style=&quot;color: rgb(59, 59, 59); background-color: rgb(255, 255, 255); font-family: Consolas, &amp;quot;Courier New&amp;quot;, monospace; font-weight: normal; font-size: 14px; line-height: 19px;&quot;&gt;&lt;div&gt;&lt;div style=&quot;color: rgb(59, 59, 59); background-color: rgb(255, 255, 255); font-family: Consolas, &amp;quot;Courier New&amp;quot;, monospace; font-weight: normal; font-size: 14px; line-height: 19px;&quot;&gt;&lt;div&gt;&lt;div style=&quot;color: rgb(59, 59, 59); background-color: rgb(255, 255, 255); font-family: Consolas, &amp;quot;Courier New&amp;quot;, monospace; font-weight: normal; font-size: 14px; line-height: 19px;&quot;&gt;&lt;div&gt;data_confirm&lt;/div&gt;&lt;/div&gt;&lt;/div&gt;&lt;/div&gt;&lt;/div&gt;&lt;/div&gt;" style="shape=hexagon;perimeter=hexagonPerimeter2;whiteSpace=wrap;html=1;fixedSize=1;" vertex="1" parent="hAbh9SorM6jJL6epeVYg-513">
          <mxGeometry x="185" y="1490" width="120" height="80" as="geometry" />
        </mxCell>
        <mxCell id="hAbh9SorM6jJL6epeVYg-623" value="" style="edgeStyle=orthogonalEdgeStyle;rounded=0;orthogonalLoop=1;jettySize=auto;html=1;" edge="1" source="hAbh9SorM6jJL6epeVYg-624" target="hAbh9SorM6jJL6epeVYg-625" parent="hAbh9SorM6jJL6epeVYg-427">
          <mxGeometry relative="1" as="geometry" />
        </mxCell>
        <mxCell id="hAbh9SorM6jJL6epeVYg-624" value="&lt;div style=&quot;color: rgb(59, 59, 59); background-color: rgb(255, 255, 255); font-family: Consolas, &amp;quot;Courier New&amp;quot;, monospace; font-weight: normal; font-size: 14px; line-height: 19px;&quot;&gt;&lt;div&gt;&lt;div style=&quot;color: rgb(59, 59, 59); background-color: rgb(255, 255, 255); font-family: Consolas, &amp;quot;Courier New&amp;quot;, monospace; font-weight: normal; font-size: 14px; line-height: 19px;&quot;&gt;&lt;div&gt;edit_tag&lt;/div&gt;&lt;/div&gt;&lt;/div&gt;&lt;/div&gt;" style="shape=hexagon;perimeter=hexagonPerimeter2;whiteSpace=wrap;html=1;fixedSize=1;" vertex="1" parent="hAbh9SorM6jJL6epeVYg-427">
          <mxGeometry x="1410" y="610" width="120" height="80" as="geometry" />
        </mxCell>
        <mxCell id="hAbh9SorM6jJL6epeVYg-680" style="edgeStyle=orthogonalEdgeStyle;rounded=0;orthogonalLoop=1;jettySize=auto;html=1;entryX=0.5;entryY=0;entryDx=0;entryDy=0;" edge="1" parent="hAbh9SorM6jJL6epeVYg-427" source="hAbh9SorM6jJL6epeVYg-625" target="hAbh9SorM6jJL6epeVYg-628">
          <mxGeometry relative="1" as="geometry" />
        </mxCell>
        <mxCell id="hAbh9SorM6jJL6epeVYg-625" value="&lt;div style=&quot;color: rgb(59, 59, 59); background-color: rgb(255, 255, 255); font-family: Consolas, &amp;quot;Courier New&amp;quot;, monospace; font-weight: normal; font-size: 14px; line-height: 19px;&quot;&gt;&lt;div&gt;&lt;div style=&quot;color: rgb(59, 59, 59); background-color: rgb(255, 255, 255); font-family: Consolas, &amp;quot;Courier New&amp;quot;, monospace; font-weight: normal; font-size: 14px; line-height: 19px;&quot;&gt;&lt;div&gt;CREATE_TAG&lt;/div&gt;&lt;/div&gt;&lt;/div&gt;&lt;/div&gt;" style="rounded=1;whiteSpace=wrap;html=1;" vertex="1" parent="hAbh9SorM6jJL6epeVYg-427">
          <mxGeometry x="1410" y="740" width="120" height="60" as="geometry" />
        </mxCell>
        <mxCell id="hAbh9SorM6jJL6epeVYg-797" style="edgeStyle=orthogonalEdgeStyle;rounded=0;orthogonalLoop=1;jettySize=auto;html=1;entryX=0.5;entryY=1;entryDx=0;entryDy=0;" edge="1" parent="hAbh9SorM6jJL6epeVYg-427" source="hAbh9SorM6jJL6epeVYg-628" target="hAbh9SorM6jJL6epeVYg-427">
          <mxGeometry relative="1" as="geometry">
            <Array as="points">
              <mxPoint x="1470" y="2740" />
              <mxPoint x="3265" y="2740" />
            </Array>
          </mxGeometry>
        </mxCell>
        <mxCell id="hAbh9SorM6jJL6epeVYg-628" value="&lt;div style=&quot;color: rgb(59, 59, 59); background-color: rgb(255, 255, 255); font-family: Consolas, &amp;quot;Courier New&amp;quot;, monospace; font-weight: normal; font-size: 14px; line-height: 19px;&quot;&gt;&lt;div&gt;&lt;div style=&quot;color: rgb(59, 59, 59); background-color: rgb(255, 255, 255); font-family: Consolas, &amp;quot;Courier New&amp;quot;, monospace; font-weight: normal; font-size: 14px; line-height: 19px;&quot;&gt;&lt;div&gt;create_tag_conv&lt;/div&gt;&lt;/div&gt;&lt;/div&gt;&lt;/div&gt;" style="swimlane;whiteSpace=wrap;html=1;startSize=23;" vertex="1" parent="hAbh9SorM6jJL6epeVYg-427">
          <mxGeometry x="1075" y="880" width="790" height="1680" as="geometry" />
        </mxCell>
        <mxCell id="hAbh9SorM6jJL6epeVYg-629" value="" style="edgeStyle=orthogonalEdgeStyle;rounded=0;orthogonalLoop=1;jettySize=auto;html=1;" edge="1" parent="hAbh9SorM6jJL6epeVYg-628" source="hAbh9SorM6jJL6epeVYg-630" target="hAbh9SorM6jJL6epeVYg-636">
          <mxGeometry relative="1" as="geometry" />
        </mxCell>
        <mxCell id="hAbh9SorM6jJL6epeVYg-630" value="" style="shape=callout;whiteSpace=wrap;html=1;perimeter=calloutPerimeter;" vertex="1" parent="hAbh9SorM6jJL6epeVYg-628">
          <mxGeometry x="185" y="60" width="120" height="80" as="geometry" />
        </mxCell>
        <mxCell id="hAbh9SorM6jJL6epeVYg-633" value="" style="edgeStyle=orthogonalEdgeStyle;rounded=0;orthogonalLoop=1;jettySize=auto;html=1;" edge="1" parent="hAbh9SorM6jJL6epeVYg-628" source="hAbh9SorM6jJL6epeVYg-634" target="hAbh9SorM6jJL6epeVYg-640">
          <mxGeometry relative="1" as="geometry" />
        </mxCell>
        <mxCell id="hAbh9SorM6jJL6epeVYg-634" value="&lt;div style=&quot;color: rgb(59, 59, 59); background-color: rgb(255, 255, 255); font-family: Consolas, &amp;quot;Courier New&amp;quot;, monospace; font-weight: normal; font-size: 14px; line-height: 19px;&quot;&gt;&lt;div&gt;cancel&lt;/div&gt;&lt;/div&gt;" style="ellipse;whiteSpace=wrap;html=1;aspect=fixed;" vertex="1" parent="hAbh9SorM6jJL6epeVYg-628">
          <mxGeometry x="530" y="50" width="80" height="80" as="geometry" />
        </mxCell>
        <mxCell id="hAbh9SorM6jJL6epeVYg-635" value="" style="edgeStyle=orthogonalEdgeStyle;rounded=0;orthogonalLoop=1;jettySize=auto;html=1;" edge="1" parent="hAbh9SorM6jJL6epeVYg-628" source="hAbh9SorM6jJL6epeVYg-636" target="hAbh9SorM6jJL6epeVYg-643">
          <mxGeometry relative="1" as="geometry" />
        </mxCell>
        <mxCell id="hAbh9SorM6jJL6epeVYg-636" value="&lt;div style=&quot;color: rgb(59, 59, 59); background-color: rgb(255, 255, 255); font-family: Consolas, &amp;quot;Courier New&amp;quot;, monospace; font-weight: normal; font-size: 14px; line-height: 19px;&quot;&gt;&lt;div&gt;&lt;div style=&quot;color: rgb(59, 59, 59); background-color: rgb(255, 255, 255); font-family: Consolas, &amp;quot;Courier New&amp;quot;, monospace; font-weight: normal; font-size: 14px; line-height: 19px;&quot;&gt;&lt;div&gt;add_tag_title&lt;/div&gt;&lt;/div&gt;&lt;/div&gt;&lt;/div&gt;" style="shape=hexagon;perimeter=hexagonPerimeter2;whiteSpace=wrap;html=1;fixedSize=1;" vertex="1" parent="hAbh9SorM6jJL6epeVYg-628">
          <mxGeometry x="185" y="181" width="120" height="80" as="geometry" />
        </mxCell>
        <mxCell id="hAbh9SorM6jJL6epeVYg-639" style="edgeStyle=orthogonalEdgeStyle;rounded=0;orthogonalLoop=1;jettySize=auto;html=1;entryX=0.5;entryY=1;entryDx=0;entryDy=0;exitX=1;exitY=0.5;exitDx=0;exitDy=0;" edge="1" parent="hAbh9SorM6jJL6epeVYg-628" source="hAbh9SorM6jJL6epeVYg-640" target="hAbh9SorM6jJL6epeVYg-628">
          <mxGeometry relative="1" as="geometry">
            <Array as="points">
              <mxPoint x="700" y="210" />
              <mxPoint x="700" y="1600" />
              <mxPoint x="395" y="1600" />
            </Array>
          </mxGeometry>
        </mxCell>
        <mxCell id="hAbh9SorM6jJL6epeVYg-640" value="&lt;div style=&quot;color: rgb(59, 59, 59); background-color: rgb(255, 255, 255); font-family: Consolas, &amp;quot;Courier New&amp;quot;, monospace; font-weight: normal; font-size: 14px; line-height: 19px;&quot;&gt;&lt;div&gt;insert_cancel&lt;/div&gt;&lt;/div&gt;" style="shape=hexagon;perimeter=hexagonPerimeter2;whiteSpace=wrap;html=1;fixedSize=1;" vertex="1" parent="hAbh9SorM6jJL6epeVYg-628">
          <mxGeometry x="510" y="170" width="120" height="80" as="geometry" />
        </mxCell>
        <mxCell id="hAbh9SorM6jJL6epeVYg-641" style="edgeStyle=orthogonalEdgeStyle;rounded=0;orthogonalLoop=1;jettySize=auto;html=1;" edge="1" parent="hAbh9SorM6jJL6epeVYg-628" source="hAbh9SorM6jJL6epeVYg-643" target="hAbh9SorM6jJL6epeVYg-645">
          <mxGeometry relative="1" as="geometry" />
        </mxCell>
        <mxCell id="hAbh9SorM6jJL6epeVYg-642" style="edgeStyle=orthogonalEdgeStyle;rounded=0;orthogonalLoop=1;jettySize=auto;html=1;entryX=0.5;entryY=0;entryDx=0;entryDy=0;" edge="1" parent="hAbh9SorM6jJL6epeVYg-628" source="hAbh9SorM6jJL6epeVYg-643" target="hAbh9SorM6jJL6epeVYg-647">
          <mxGeometry relative="1" as="geometry" />
        </mxCell>
        <mxCell id="hAbh9SorM6jJL6epeVYg-643" value="&lt;div style=&quot;color: rgb(59, 59, 59); background-color: rgb(255, 255, 255); font-family: Consolas, &amp;quot;Courier New&amp;quot;, monospace; font-weight: normal; font-size: 14px; line-height: 19px;&quot;&gt;&lt;div&gt;DESCRIPTION&lt;/div&gt;&lt;/div&gt;" style="rounded=1;whiteSpace=wrap;html=1;" vertex="1" parent="hAbh9SorM6jJL6epeVYg-628">
          <mxGeometry x="185" y="300" width="120" height="60" as="geometry" />
        </mxCell>
        <mxCell id="hAbh9SorM6jJL6epeVYg-644" value="" style="edgeStyle=orthogonalEdgeStyle;rounded=0;orthogonalLoop=1;jettySize=auto;html=1;" edge="1" parent="hAbh9SorM6jJL6epeVYg-628" source="hAbh9SorM6jJL6epeVYg-645" target="hAbh9SorM6jJL6epeVYg-649">
          <mxGeometry relative="1" as="geometry" />
        </mxCell>
        <mxCell id="hAbh9SorM6jJL6epeVYg-645" value="" style="shape=callout;whiteSpace=wrap;html=1;perimeter=calloutPerimeter;" vertex="1" parent="hAbh9SorM6jJL6epeVYg-628">
          <mxGeometry x="100" y="400" width="120" height="80" as="geometry" />
        </mxCell>
        <mxCell id="hAbh9SorM6jJL6epeVYg-646" value="" style="edgeStyle=orthogonalEdgeStyle;rounded=0;orthogonalLoop=1;jettySize=auto;html=1;" edge="1" parent="hAbh9SorM6jJL6epeVYg-628" source="hAbh9SorM6jJL6epeVYg-647" target="hAbh9SorM6jJL6epeVYg-651">
          <mxGeometry relative="1" as="geometry" />
        </mxCell>
        <mxCell id="hAbh9SorM6jJL6epeVYg-647" value="&lt;div style=&quot;color: rgb(59, 59, 59); background-color: rgb(255, 255, 255); font-family: Consolas, &amp;quot;Courier New&amp;quot;, monospace; font-weight: normal; font-size: 14px; line-height: 19px;&quot;&gt;&lt;div&gt;skip&lt;/div&gt;&lt;/div&gt;" style="ellipse;whiteSpace=wrap;html=1;aspect=fixed;" vertex="1" parent="hAbh9SorM6jJL6epeVYg-628">
          <mxGeometry x="305" y="400" width="80" height="80" as="geometry" />
        </mxCell>
        <mxCell id="hAbh9SorM6jJL6epeVYg-648" style="edgeStyle=orthogonalEdgeStyle;rounded=0;orthogonalLoop=1;jettySize=auto;html=1;entryX=0;entryY=0.5;entryDx=0;entryDy=0;" edge="1" parent="hAbh9SorM6jJL6epeVYg-628" source="hAbh9SorM6jJL6epeVYg-649" target="hAbh9SorM6jJL6epeVYg-654">
          <mxGeometry relative="1" as="geometry" />
        </mxCell>
        <mxCell id="hAbh9SorM6jJL6epeVYg-649" value="&lt;div style=&quot;color: rgb(59, 59, 59); background-color: rgb(255, 255, 255); font-family: Consolas, &amp;quot;Courier New&amp;quot;, monospace; font-weight: normal; font-size: 14px; line-height: 19px;&quot;&gt;&lt;div&gt;add_description&lt;/div&gt;&lt;/div&gt;" style="shape=hexagon;perimeter=hexagonPerimeter2;whiteSpace=wrap;html=1;fixedSize=1;" vertex="1" parent="hAbh9SorM6jJL6epeVYg-628">
          <mxGeometry x="100" y="510" width="120" height="80" as="geometry" />
        </mxCell>
        <mxCell id="hAbh9SorM6jJL6epeVYg-650" style="edgeStyle=orthogonalEdgeStyle;rounded=0;orthogonalLoop=1;jettySize=auto;html=1;entryX=1;entryY=0.5;entryDx=0;entryDy=0;" edge="1" parent="hAbh9SorM6jJL6epeVYg-628" source="hAbh9SorM6jJL6epeVYg-651" target="hAbh9SorM6jJL6epeVYg-654">
          <mxGeometry relative="1" as="geometry" />
        </mxCell>
        <mxCell id="hAbh9SorM6jJL6epeVYg-651" value="&lt;div style=&quot;color: rgb(59, 59, 59); background-color: rgb(255, 255, 255); font-family: Consolas, &amp;quot;Courier New&amp;quot;, monospace; font-weight: normal; font-size: 14px; line-height: 19px;&quot;&gt;&lt;div&gt;skip_description&lt;/div&gt;&lt;/div&gt;" style="shape=hexagon;perimeter=hexagonPerimeter2;whiteSpace=wrap;html=1;fixedSize=1;" vertex="1" parent="hAbh9SorM6jJL6epeVYg-628">
          <mxGeometry x="285" y="510" width="120" height="80" as="geometry" />
        </mxCell>
        <mxCell id="hAbh9SorM6jJL6epeVYg-652" style="edgeStyle=orthogonalEdgeStyle;rounded=0;orthogonalLoop=1;jettySize=auto;html=1;entryX=0.5;entryY=0;entryDx=0;entryDy=0;entryPerimeter=0;" edge="1" parent="hAbh9SorM6jJL6epeVYg-628" source="hAbh9SorM6jJL6epeVYg-654" target="hAbh9SorM6jJL6epeVYg-656">
          <mxGeometry relative="1" as="geometry" />
        </mxCell>
        <mxCell id="hAbh9SorM6jJL6epeVYg-653" style="edgeStyle=orthogonalEdgeStyle;rounded=0;orthogonalLoop=1;jettySize=auto;html=1;entryX=0.5;entryY=0;entryDx=0;entryDy=0;" edge="1" parent="hAbh9SorM6jJL6epeVYg-628" source="hAbh9SorM6jJL6epeVYg-654" target="hAbh9SorM6jJL6epeVYg-658">
          <mxGeometry relative="1" as="geometry" />
        </mxCell>
        <mxCell id="hAbh9SorM6jJL6epeVYg-654" value="&lt;div style=&quot;color: rgb(59, 59, 59); background-color: rgb(255, 255, 255); font-family: Consolas, &amp;quot;Courier New&amp;quot;, monospace; font-weight: normal; font-size: 14px; line-height: 19px;&quot;&gt;&lt;div&gt;DATE&lt;/div&gt;&lt;/div&gt;" style="rounded=1;whiteSpace=wrap;html=1;" vertex="1" parent="hAbh9SorM6jJL6epeVYg-628">
          <mxGeometry x="185" y="630" width="120" height="60" as="geometry" />
        </mxCell>
        <mxCell id="hAbh9SorM6jJL6epeVYg-655" value="" style="edgeStyle=orthogonalEdgeStyle;rounded=0;orthogonalLoop=1;jettySize=auto;html=1;" edge="1" parent="hAbh9SorM6jJL6epeVYg-628" source="hAbh9SorM6jJL6epeVYg-656" target="hAbh9SorM6jJL6epeVYg-660">
          <mxGeometry relative="1" as="geometry" />
        </mxCell>
        <mxCell id="hAbh9SorM6jJL6epeVYg-656" value="" style="shape=callout;whiteSpace=wrap;html=1;perimeter=calloutPerimeter;" vertex="1" parent="hAbh9SorM6jJL6epeVYg-628">
          <mxGeometry x="100" y="730" width="120" height="80" as="geometry" />
        </mxCell>
        <mxCell id="hAbh9SorM6jJL6epeVYg-657" value="" style="edgeStyle=orthogonalEdgeStyle;rounded=0;orthogonalLoop=1;jettySize=auto;html=1;" edge="1" parent="hAbh9SorM6jJL6epeVYg-628" source="hAbh9SorM6jJL6epeVYg-658" target="hAbh9SorM6jJL6epeVYg-662">
          <mxGeometry relative="1" as="geometry" />
        </mxCell>
        <mxCell id="hAbh9SorM6jJL6epeVYg-658" value="&lt;div style=&quot;color: rgb(59, 59, 59); background-color: rgb(255, 255, 255); font-family: Consolas, &amp;quot;Courier New&amp;quot;, monospace; font-weight: normal; font-size: 14px; line-height: 19px;&quot;&gt;&lt;div&gt;skip&lt;/div&gt;&lt;/div&gt;" style="ellipse;whiteSpace=wrap;html=1;aspect=fixed;" vertex="1" parent="hAbh9SorM6jJL6epeVYg-628">
          <mxGeometry x="305" y="730" width="80" height="80" as="geometry" />
        </mxCell>
        <mxCell id="hAbh9SorM6jJL6epeVYg-659" style="edgeStyle=orthogonalEdgeStyle;rounded=0;orthogonalLoop=1;jettySize=auto;html=1;entryX=0;entryY=0.5;entryDx=0;entryDy=0;" edge="1" parent="hAbh9SorM6jJL6epeVYg-628" source="hAbh9SorM6jJL6epeVYg-660" target="hAbh9SorM6jJL6epeVYg-665">
          <mxGeometry relative="1" as="geometry" />
        </mxCell>
        <mxCell id="hAbh9SorM6jJL6epeVYg-660" value="&lt;div style=&quot;color: rgb(59, 59, 59); background-color: rgb(255, 255, 255); font-family: Consolas, &amp;quot;Courier New&amp;quot;, monospace; font-weight: normal; font-size: 14px; line-height: 19px;&quot;&gt;&lt;div&gt;add_due&lt;/div&gt;&lt;/div&gt;" style="shape=hexagon;perimeter=hexagonPerimeter2;whiteSpace=wrap;html=1;fixedSize=1;" vertex="1" parent="hAbh9SorM6jJL6epeVYg-628">
          <mxGeometry x="100" y="840" width="120" height="80" as="geometry" />
        </mxCell>
        <mxCell id="hAbh9SorM6jJL6epeVYg-661" style="edgeStyle=orthogonalEdgeStyle;rounded=0;orthogonalLoop=1;jettySize=auto;html=1;entryX=1;entryY=0.5;entryDx=0;entryDy=0;" edge="1" parent="hAbh9SorM6jJL6epeVYg-628" source="hAbh9SorM6jJL6epeVYg-662" target="hAbh9SorM6jJL6epeVYg-665">
          <mxGeometry relative="1" as="geometry" />
        </mxCell>
        <mxCell id="hAbh9SorM6jJL6epeVYg-662" value="&lt;div style=&quot;color: rgb(59, 59, 59); background-color: rgb(255, 255, 255); font-family: Consolas, &amp;quot;Courier New&amp;quot;, monospace; font-weight: normal; font-size: 14px; line-height: 19px;&quot;&gt;&lt;div&gt;skip_due&lt;/div&gt;&lt;/div&gt;" style="shape=hexagon;perimeter=hexagonPerimeter2;whiteSpace=wrap;html=1;fixedSize=1;" vertex="1" parent="hAbh9SorM6jJL6epeVYg-628">
          <mxGeometry x="285" y="840" width="120" height="80" as="geometry" />
        </mxCell>
        <mxCell id="hAbh9SorM6jJL6epeVYg-663" style="edgeStyle=orthogonalEdgeStyle;rounded=0;orthogonalLoop=1;jettySize=auto;html=1;entryX=0.5;entryY=0;entryDx=0;entryDy=0;entryPerimeter=0;" edge="1" parent="hAbh9SorM6jJL6epeVYg-628" source="hAbh9SorM6jJL6epeVYg-665" target="hAbh9SorM6jJL6epeVYg-667">
          <mxGeometry relative="1" as="geometry" />
        </mxCell>
        <mxCell id="hAbh9SorM6jJL6epeVYg-664" style="edgeStyle=orthogonalEdgeStyle;rounded=0;orthogonalLoop=1;jettySize=auto;html=1;entryX=0.5;entryY=0;entryDx=0;entryDy=0;" edge="1" parent="hAbh9SorM6jJL6epeVYg-628" source="hAbh9SorM6jJL6epeVYg-665" target="hAbh9SorM6jJL6epeVYg-669">
          <mxGeometry relative="1" as="geometry" />
        </mxCell>
        <mxCell id="hAbh9SorM6jJL6epeVYg-665" value="&lt;div style=&quot;color: rgb(59, 59, 59); background-color: rgb(255, 255, 255); font-family: Consolas, &amp;quot;Courier New&amp;quot;, monospace; font-weight: normal; font-size: 14px; line-height: 19px;&quot;&gt;&lt;div&gt;&lt;div style=&quot;color: rgb(59, 59, 59); background-color: rgb(255, 255, 255); font-family: Consolas, &amp;quot;Courier New&amp;quot;, monospace; font-weight: normal; font-size: 14px; line-height: 19px;&quot;&gt;&lt;div&gt;FREQUENCY&lt;/div&gt;&lt;/div&gt;&lt;/div&gt;&lt;/div&gt;" style="rounded=1;whiteSpace=wrap;html=1;" vertex="1" parent="hAbh9SorM6jJL6epeVYg-628">
          <mxGeometry x="185" y="960" width="120" height="60" as="geometry" />
        </mxCell>
        <mxCell id="hAbh9SorM6jJL6epeVYg-666" value="" style="edgeStyle=orthogonalEdgeStyle;rounded=0;orthogonalLoop=1;jettySize=auto;html=1;" edge="1" parent="hAbh9SorM6jJL6epeVYg-628" source="hAbh9SorM6jJL6epeVYg-667" target="hAbh9SorM6jJL6epeVYg-671">
          <mxGeometry relative="1" as="geometry" />
        </mxCell>
        <mxCell id="hAbh9SorM6jJL6epeVYg-667" value="" style="shape=callout;whiteSpace=wrap;html=1;perimeter=calloutPerimeter;" vertex="1" parent="hAbh9SorM6jJL6epeVYg-628">
          <mxGeometry x="100" y="1060" width="120" height="80" as="geometry" />
        </mxCell>
        <mxCell id="hAbh9SorM6jJL6epeVYg-668" value="" style="edgeStyle=orthogonalEdgeStyle;rounded=0;orthogonalLoop=1;jettySize=auto;html=1;" edge="1" parent="hAbh9SorM6jJL6epeVYg-628" source="hAbh9SorM6jJL6epeVYg-669" target="hAbh9SorM6jJL6epeVYg-673">
          <mxGeometry relative="1" as="geometry" />
        </mxCell>
        <mxCell id="hAbh9SorM6jJL6epeVYg-669" value="&lt;div style=&quot;color: rgb(59, 59, 59); background-color: rgb(255, 255, 255); font-family: Consolas, &amp;quot;Courier New&amp;quot;, monospace; font-weight: normal; font-size: 14px; line-height: 19px;&quot;&gt;&lt;div&gt;skip&lt;/div&gt;&lt;/div&gt;" style="ellipse;whiteSpace=wrap;html=1;aspect=fixed;" vertex="1" parent="hAbh9SorM6jJL6epeVYg-628">
          <mxGeometry x="305" y="1060" width="80" height="80" as="geometry" />
        </mxCell>
        <mxCell id="hAbh9SorM6jJL6epeVYg-670" style="edgeStyle=orthogonalEdgeStyle;rounded=0;orthogonalLoop=1;jettySize=auto;html=1;entryX=0;entryY=0.5;entryDx=0;entryDy=0;" edge="1" parent="hAbh9SorM6jJL6epeVYg-628" source="hAbh9SorM6jJL6epeVYg-671" target="hAbh9SorM6jJL6epeVYg-675">
          <mxGeometry relative="1" as="geometry" />
        </mxCell>
        <mxCell id="hAbh9SorM6jJL6epeVYg-671" value="&lt;div style=&quot;color: rgb(59, 59, 59); background-color: rgb(255, 255, 255); font-family: Consolas, &amp;quot;Courier New&amp;quot;, monospace; font-weight: normal; font-size: 14px; line-height: 19px;&quot;&gt;&lt;div&gt;&lt;div style=&quot;color: rgb(59, 59, 59); background-color: rgb(255, 255, 255); font-family: Consolas, &amp;quot;Courier New&amp;quot;, monospace; font-weight: normal; font-size: 14px; line-height: 19px;&quot;&gt;&lt;div&gt;add_frequency&lt;/div&gt;&lt;/div&gt;&lt;/div&gt;&lt;/div&gt;" style="shape=hexagon;perimeter=hexagonPerimeter2;whiteSpace=wrap;html=1;fixedSize=1;" vertex="1" parent="hAbh9SorM6jJL6epeVYg-628">
          <mxGeometry x="100" y="1170" width="120" height="80" as="geometry" />
        </mxCell>
        <mxCell id="hAbh9SorM6jJL6epeVYg-672" style="edgeStyle=orthogonalEdgeStyle;rounded=0;orthogonalLoop=1;jettySize=auto;html=1;entryX=1;entryY=0.5;entryDx=0;entryDy=0;" edge="1" parent="hAbh9SorM6jJL6epeVYg-628" source="hAbh9SorM6jJL6epeVYg-673" target="hAbh9SorM6jJL6epeVYg-675">
          <mxGeometry relative="1" as="geometry" />
        </mxCell>
        <mxCell id="hAbh9SorM6jJL6epeVYg-673" value="&lt;div style=&quot;color: rgb(59, 59, 59); background-color: rgb(255, 255, 255); font-family: Consolas, &amp;quot;Courier New&amp;quot;, monospace; font-weight: normal; font-size: 14px; line-height: 19px;&quot;&gt;&lt;div&gt;&lt;div style=&quot;color: rgb(59, 59, 59); background-color: rgb(255, 255, 255); font-family: Consolas, &amp;quot;Courier New&amp;quot;, monospace; font-weight: normal; font-size: 14px; line-height: 19px;&quot;&gt;&lt;div&gt;skip_frequency&lt;/div&gt;&lt;/div&gt;&lt;/div&gt;&lt;/div&gt;" style="shape=hexagon;perimeter=hexagonPerimeter2;whiteSpace=wrap;html=1;fixedSize=1;" vertex="1" parent="hAbh9SorM6jJL6epeVYg-628">
          <mxGeometry x="285" y="1170" width="120" height="80" as="geometry" />
        </mxCell>
        <mxCell id="hAbh9SorM6jJL6epeVYg-674" value="" style="edgeStyle=orthogonalEdgeStyle;rounded=0;orthogonalLoop=1;jettySize=auto;html=1;" edge="1" parent="hAbh9SorM6jJL6epeVYg-628" source="hAbh9SorM6jJL6epeVYg-675" target="hAbh9SorM6jJL6epeVYg-677">
          <mxGeometry relative="1" as="geometry" />
        </mxCell>
        <mxCell id="hAbh9SorM6jJL6epeVYg-675" value="&lt;div style=&quot;color: rgb(59, 59, 59); background-color: rgb(255, 255, 255); font-family: Consolas, &amp;quot;Courier New&amp;quot;, monospace; font-weight: normal; font-size: 14px; line-height: 19px;&quot;&gt;&lt;div&gt;&lt;div style=&quot;color: rgb(59, 59, 59); background-color: rgb(255, 255, 255); font-family: Consolas, &amp;quot;Courier New&amp;quot;, monospace; font-weight: normal; font-size: 14px; line-height: 19px;&quot;&gt;&lt;div&gt;&lt;div style=&quot;color: rgb(59, 59, 59); background-color: rgb(255, 255, 255); font-family: Consolas, &amp;quot;Courier New&amp;quot;, monospace; font-weight: normal; font-size: 14px; line-height: 19px;&quot;&gt;&lt;div&gt;CONFIRM&lt;/div&gt;&lt;/div&gt;&lt;/div&gt;&lt;/div&gt;&lt;/div&gt;&lt;/div&gt;" style="rounded=1;whiteSpace=wrap;html=1;" vertex="1" parent="hAbh9SorM6jJL6epeVYg-628">
          <mxGeometry x="185" y="1290" width="120" height="60" as="geometry" />
        </mxCell>
        <mxCell id="hAbh9SorM6jJL6epeVYg-676" value="" style="edgeStyle=orthogonalEdgeStyle;rounded=0;orthogonalLoop=1;jettySize=auto;html=1;" edge="1" parent="hAbh9SorM6jJL6epeVYg-628" source="hAbh9SorM6jJL6epeVYg-677" target="hAbh9SorM6jJL6epeVYg-679">
          <mxGeometry relative="1" as="geometry" />
        </mxCell>
        <mxCell id="hAbh9SorM6jJL6epeVYg-677" value="&lt;div style=&quot;color: rgb(59, 59, 59); background-color: rgb(255, 255, 255); font-family: Consolas, &amp;quot;Courier New&amp;quot;, monospace; font-weight: normal; font-size: 14px; line-height: 19px;&quot;&gt;&lt;div&gt;&lt;div style=&quot;color: rgb(59, 59, 59); background-color: rgb(255, 255, 255); font-family: Consolas, &amp;quot;Courier New&amp;quot;, monospace; font-weight: normal; font-size: 14px; line-height: 19px;&quot;&gt;&lt;div&gt;confirm&lt;/div&gt;&lt;/div&gt;&lt;/div&gt;&lt;/div&gt;" style="ellipse;whiteSpace=wrap;html=1;aspect=fixed;" vertex="1" parent="hAbh9SorM6jJL6epeVYg-628">
          <mxGeometry x="205" y="1380" width="80" height="80" as="geometry" />
        </mxCell>
        <mxCell id="hAbh9SorM6jJL6epeVYg-678" style="edgeStyle=orthogonalEdgeStyle;rounded=0;orthogonalLoop=1;jettySize=auto;html=1;entryX=0.5;entryY=1;entryDx=0;entryDy=0;" edge="1" parent="hAbh9SorM6jJL6epeVYg-628" source="hAbh9SorM6jJL6epeVYg-679" target="hAbh9SorM6jJL6epeVYg-640">
          <mxGeometry relative="1" as="geometry" />
        </mxCell>
        <mxCell id="hAbh9SorM6jJL6epeVYg-679" value="&lt;div style=&quot;color: rgb(59, 59, 59); background-color: rgb(255, 255, 255); font-family: Consolas, &amp;quot;Courier New&amp;quot;, monospace; font-weight: normal; font-size: 14px; line-height: 19px;&quot;&gt;&lt;div&gt;&lt;div style=&quot;color: rgb(59, 59, 59); background-color: rgb(255, 255, 255); font-family: Consolas, &amp;quot;Courier New&amp;quot;, monospace; font-weight: normal; font-size: 14px; line-height: 19px;&quot;&gt;&lt;div&gt;&lt;div style=&quot;color: rgb(59, 59, 59); background-color: rgb(255, 255, 255); font-family: Consolas, &amp;quot;Courier New&amp;quot;, monospace; font-weight: normal; font-size: 14px; line-height: 19px;&quot;&gt;&lt;div&gt;data_confirm&lt;/div&gt;&lt;/div&gt;&lt;/div&gt;&lt;/div&gt;&lt;/div&gt;&lt;/div&gt;" style="shape=hexagon;perimeter=hexagonPerimeter2;whiteSpace=wrap;html=1;fixedSize=1;" vertex="1" parent="hAbh9SorM6jJL6epeVYg-628">
          <mxGeometry x="185" y="1490" width="120" height="80" as="geometry" />
        </mxCell>
        <mxCell id="hAbh9SorM6jJL6epeVYg-737" value="" style="edgeStyle=orthogonalEdgeStyle;rounded=0;orthogonalLoop=1;jettySize=auto;html=1;" edge="1" source="hAbh9SorM6jJL6epeVYg-738" target="hAbh9SorM6jJL6epeVYg-740" parent="hAbh9SorM6jJL6epeVYg-427">
          <mxGeometry relative="1" as="geometry" />
        </mxCell>
        <mxCell id="hAbh9SorM6jJL6epeVYg-738" value="&lt;div style=&quot;color: rgb(59, 59, 59); background-color: rgb(255, 255, 255); font-family: Consolas, &amp;quot;Courier New&amp;quot;, monospace; font-weight: normal; font-size: 14px; line-height: 19px;&quot;&gt;&lt;div&gt;edit_task&lt;/div&gt;&lt;/div&gt;" style="shape=hexagon;perimeter=hexagonPerimeter2;whiteSpace=wrap;html=1;fixedSize=1;" vertex="1" parent="hAbh9SorM6jJL6epeVYg-427">
          <mxGeometry x="2330" y="610" width="120" height="80" as="geometry" />
        </mxCell>
        <mxCell id="hAbh9SorM6jJL6epeVYg-739" style="edgeStyle=orthogonalEdgeStyle;rounded=0;orthogonalLoop=1;jettySize=auto;html=1;entryX=0.5;entryY=0;entryDx=0;entryDy=0;" edge="1" source="hAbh9SorM6jJL6epeVYg-740" target="hAbh9SorM6jJL6epeVYg-741" parent="hAbh9SorM6jJL6epeVYg-427">
          <mxGeometry relative="1" as="geometry" />
        </mxCell>
        <mxCell id="hAbh9SorM6jJL6epeVYg-740" value="&lt;div style=&quot;color: rgb(59, 59, 59); background-color: rgb(255, 255, 255); font-family: Consolas, &amp;quot;Courier New&amp;quot;, monospace; font-weight: normal; font-size: 14px; line-height: 19px;&quot;&gt;&lt;div&gt;CREATE_TASK&lt;/div&gt;&lt;/div&gt;" style="rounded=1;whiteSpace=wrap;html=1;" vertex="1" parent="hAbh9SorM6jJL6epeVYg-427">
          <mxGeometry x="2330" y="740" width="120" height="60" as="geometry" />
        </mxCell>
        <mxCell id="hAbh9SorM6jJL6epeVYg-798" style="edgeStyle=orthogonalEdgeStyle;rounded=0;orthogonalLoop=1;jettySize=auto;html=1;exitX=0.5;exitY=1;exitDx=0;exitDy=0;entryX=0.5;entryY=1;entryDx=0;entryDy=0;" edge="1" parent="hAbh9SorM6jJL6epeVYg-427" source="hAbh9SorM6jJL6epeVYg-741" target="hAbh9SorM6jJL6epeVYg-427">
          <mxGeometry relative="1" as="geometry">
            <Array as="points">
              <mxPoint x="2390" y="2820" />
              <mxPoint x="3265" y="2820" />
            </Array>
          </mxGeometry>
        </mxCell>
        <mxCell id="hAbh9SorM6jJL6epeVYg-741" value="&lt;div style=&quot;color: rgb(59, 59, 59); background-color: rgb(255, 255, 255); font-family: Consolas, &amp;quot;Courier New&amp;quot;, monospace; font-weight: normal; font-size: 14px; line-height: 19px;&quot;&gt;&lt;div&gt;create_task_conv&lt;/div&gt;&lt;/div&gt;" style="swimlane;whiteSpace=wrap;html=1;" vertex="1" parent="hAbh9SorM6jJL6epeVYg-427">
          <mxGeometry x="1920" y="880" width="940" height="1680" as="geometry" />
        </mxCell>
        <mxCell id="hAbh9SorM6jJL6epeVYg-742" value="" style="edgeStyle=orthogonalEdgeStyle;rounded=0;orthogonalLoop=1;jettySize=auto;html=1;" edge="1" parent="hAbh9SorM6jJL6epeVYg-741" source="hAbh9SorM6jJL6epeVYg-743" target="hAbh9SorM6jJL6epeVYg-749">
          <mxGeometry relative="1" as="geometry" />
        </mxCell>
        <mxCell id="hAbh9SorM6jJL6epeVYg-743" value="" style="shape=callout;whiteSpace=wrap;html=1;perimeter=calloutPerimeter;" vertex="1" parent="hAbh9SorM6jJL6epeVYg-741">
          <mxGeometry x="185" y="60" width="120" height="80" as="geometry" />
        </mxCell>
        <mxCell id="hAbh9SorM6jJL6epeVYg-744" value="" style="edgeStyle=orthogonalEdgeStyle;rounded=0;orthogonalLoop=1;jettySize=auto;html=1;" edge="1" parent="hAbh9SorM6jJL6epeVYg-741" source="hAbh9SorM6jJL6epeVYg-745" target="hAbh9SorM6jJL6epeVYg-751">
          <mxGeometry relative="1" as="geometry" />
        </mxCell>
        <mxCell id="hAbh9SorM6jJL6epeVYg-745" value="&lt;div style=&quot;color: rgb(59, 59, 59); background-color: rgb(255, 255, 255); font-family: Consolas, &amp;quot;Courier New&amp;quot;, monospace; font-weight: normal; font-size: 14px; line-height: 19px;&quot;&gt;&lt;div&gt;skip&lt;/div&gt;&lt;/div&gt;" style="ellipse;whiteSpace=wrap;html=1;aspect=fixed;" vertex="1" parent="hAbh9SorM6jJL6epeVYg-741">
          <mxGeometry x="435" y="50" width="80" height="80" as="geometry" />
        </mxCell>
        <mxCell id="hAbh9SorM6jJL6epeVYg-746" value="" style="edgeStyle=orthogonalEdgeStyle;rounded=0;orthogonalLoop=1;jettySize=auto;html=1;" edge="1" parent="hAbh9SorM6jJL6epeVYg-741" source="hAbh9SorM6jJL6epeVYg-747" target="hAbh9SorM6jJL6epeVYg-753">
          <mxGeometry relative="1" as="geometry" />
        </mxCell>
        <mxCell id="hAbh9SorM6jJL6epeVYg-747" value="&lt;div style=&quot;color: rgb(59, 59, 59); background-color: rgb(255, 255, 255); font-family: Consolas, &amp;quot;Courier New&amp;quot;, monospace; font-weight: normal; font-size: 14px; line-height: 19px;&quot;&gt;&lt;div&gt;cancel&lt;/div&gt;&lt;/div&gt;" style="ellipse;whiteSpace=wrap;html=1;aspect=fixed;" vertex="1" parent="hAbh9SorM6jJL6epeVYg-741">
          <mxGeometry x="655" y="50" width="80" height="80" as="geometry" />
        </mxCell>
        <mxCell id="hAbh9SorM6jJL6epeVYg-748" value="" style="edgeStyle=orthogonalEdgeStyle;rounded=0;orthogonalLoop=1;jettySize=auto;html=1;" edge="1" parent="hAbh9SorM6jJL6epeVYg-741" source="hAbh9SorM6jJL6epeVYg-749" target="hAbh9SorM6jJL6epeVYg-756">
          <mxGeometry relative="1" as="geometry" />
        </mxCell>
        <mxCell id="hAbh9SorM6jJL6epeVYg-749" value="&lt;div style=&quot;color: rgb(59, 59, 59); background-color: rgb(255, 255, 255); font-family: Consolas, &amp;quot;Courier New&amp;quot;, monospace; font-weight: normal; font-size: 14px; line-height: 19px;&quot;&gt;&lt;div&gt;add_summary&lt;/div&gt;&lt;/div&gt;" style="shape=hexagon;perimeter=hexagonPerimeter2;whiteSpace=wrap;html=1;fixedSize=1;" vertex="1" parent="hAbh9SorM6jJL6epeVYg-741">
          <mxGeometry x="185" y="181" width="120" height="80" as="geometry" />
        </mxCell>
        <mxCell id="hAbh9SorM6jJL6epeVYg-750" style="edgeStyle=orthogonalEdgeStyle;rounded=0;orthogonalLoop=1;jettySize=auto;html=1;entryX=1;entryY=0.5;entryDx=0;entryDy=0;" edge="1" parent="hAbh9SorM6jJL6epeVYg-741" source="hAbh9SorM6jJL6epeVYg-751" target="hAbh9SorM6jJL6epeVYg-756">
          <mxGeometry relative="1" as="geometry" />
        </mxCell>
        <mxCell id="hAbh9SorM6jJL6epeVYg-751" value="&lt;div style=&quot;color: rgb(59, 59, 59); background-color: rgb(255, 255, 255); font-family: Consolas, &amp;quot;Courier New&amp;quot;, monospace; font-weight: normal; font-size: 14px; line-height: 19px;&quot;&gt;&lt;div&gt;skip_summary&lt;/div&gt;&lt;/div&gt;" style="shape=hexagon;perimeter=hexagonPerimeter2;whiteSpace=wrap;html=1;fixedSize=1;" vertex="1" parent="hAbh9SorM6jJL6epeVYg-741">
          <mxGeometry x="415" y="170" width="120" height="80" as="geometry" />
        </mxCell>
        <mxCell id="hAbh9SorM6jJL6epeVYg-752" style="edgeStyle=orthogonalEdgeStyle;rounded=0;orthogonalLoop=1;jettySize=auto;html=1;entryX=0.5;entryY=1;entryDx=0;entryDy=0;exitX=1;exitY=0.5;exitDx=0;exitDy=0;" edge="1" parent="hAbh9SorM6jJL6epeVYg-741" source="hAbh9SorM6jJL6epeVYg-753" target="hAbh9SorM6jJL6epeVYg-741">
          <mxGeometry relative="1" as="geometry">
            <Array as="points">
              <mxPoint x="830" y="210" />
              <mxPoint x="830" y="1600" />
              <mxPoint x="470" y="1600" />
            </Array>
          </mxGeometry>
        </mxCell>
        <mxCell id="hAbh9SorM6jJL6epeVYg-753" value="&lt;div style=&quot;color: rgb(59, 59, 59); background-color: rgb(255, 255, 255); font-family: Consolas, &amp;quot;Courier New&amp;quot;, monospace; font-weight: normal; font-size: 14px; line-height: 19px;&quot;&gt;&lt;div&gt;insert_cancel&lt;/div&gt;&lt;/div&gt;" style="shape=hexagon;perimeter=hexagonPerimeter2;whiteSpace=wrap;html=1;fixedSize=1;" vertex="1" parent="hAbh9SorM6jJL6epeVYg-741">
          <mxGeometry x="635" y="170" width="120" height="80" as="geometry" />
        </mxCell>
        <mxCell id="hAbh9SorM6jJL6epeVYg-754" style="edgeStyle=orthogonalEdgeStyle;rounded=0;orthogonalLoop=1;jettySize=auto;html=1;" edge="1" parent="hAbh9SorM6jJL6epeVYg-741" source="hAbh9SorM6jJL6epeVYg-756" target="hAbh9SorM6jJL6epeVYg-758">
          <mxGeometry relative="1" as="geometry" />
        </mxCell>
        <mxCell id="hAbh9SorM6jJL6epeVYg-755" style="edgeStyle=orthogonalEdgeStyle;rounded=0;orthogonalLoop=1;jettySize=auto;html=1;entryX=0.5;entryY=0;entryDx=0;entryDy=0;" edge="1" parent="hAbh9SorM6jJL6epeVYg-741" source="hAbh9SorM6jJL6epeVYg-756" target="hAbh9SorM6jJL6epeVYg-760">
          <mxGeometry relative="1" as="geometry" />
        </mxCell>
        <mxCell id="hAbh9SorM6jJL6epeVYg-756" value="&lt;div style=&quot;color: rgb(59, 59, 59); background-color: rgb(255, 255, 255); font-family: Consolas, &amp;quot;Courier New&amp;quot;, monospace; font-weight: normal; font-size: 14px; line-height: 19px;&quot;&gt;&lt;div&gt;DESCRIPTION&lt;/div&gt;&lt;/div&gt;" style="rounded=1;whiteSpace=wrap;html=1;" vertex="1" parent="hAbh9SorM6jJL6epeVYg-741">
          <mxGeometry x="185" y="300" width="120" height="60" as="geometry" />
        </mxCell>
        <mxCell id="hAbh9SorM6jJL6epeVYg-757" value="" style="edgeStyle=orthogonalEdgeStyle;rounded=0;orthogonalLoop=1;jettySize=auto;html=1;" edge="1" parent="hAbh9SorM6jJL6epeVYg-741" source="hAbh9SorM6jJL6epeVYg-758" target="hAbh9SorM6jJL6epeVYg-762">
          <mxGeometry relative="1" as="geometry" />
        </mxCell>
        <mxCell id="hAbh9SorM6jJL6epeVYg-758" value="" style="shape=callout;whiteSpace=wrap;html=1;perimeter=calloutPerimeter;" vertex="1" parent="hAbh9SorM6jJL6epeVYg-741">
          <mxGeometry x="100" y="400" width="120" height="80" as="geometry" />
        </mxCell>
        <mxCell id="hAbh9SorM6jJL6epeVYg-759" value="" style="edgeStyle=orthogonalEdgeStyle;rounded=0;orthogonalLoop=1;jettySize=auto;html=1;" edge="1" parent="hAbh9SorM6jJL6epeVYg-741" source="hAbh9SorM6jJL6epeVYg-760" target="hAbh9SorM6jJL6epeVYg-764">
          <mxGeometry relative="1" as="geometry" />
        </mxCell>
        <mxCell id="hAbh9SorM6jJL6epeVYg-760" value="&lt;div style=&quot;color: rgb(59, 59, 59); background-color: rgb(255, 255, 255); font-family: Consolas, &amp;quot;Courier New&amp;quot;, monospace; font-weight: normal; font-size: 14px; line-height: 19px;&quot;&gt;&lt;div&gt;skip&lt;/div&gt;&lt;/div&gt;" style="ellipse;whiteSpace=wrap;html=1;aspect=fixed;" vertex="1" parent="hAbh9SorM6jJL6epeVYg-741">
          <mxGeometry x="305" y="400" width="80" height="80" as="geometry" />
        </mxCell>
        <mxCell id="hAbh9SorM6jJL6epeVYg-761" style="edgeStyle=orthogonalEdgeStyle;rounded=0;orthogonalLoop=1;jettySize=auto;html=1;entryX=0;entryY=0.5;entryDx=0;entryDy=0;" edge="1" parent="hAbh9SorM6jJL6epeVYg-741" source="hAbh9SorM6jJL6epeVYg-762" target="hAbh9SorM6jJL6epeVYg-767">
          <mxGeometry relative="1" as="geometry" />
        </mxCell>
        <mxCell id="hAbh9SorM6jJL6epeVYg-762" value="&lt;div style=&quot;color: rgb(59, 59, 59); background-color: rgb(255, 255, 255); font-family: Consolas, &amp;quot;Courier New&amp;quot;, monospace; font-weight: normal; font-size: 14px; line-height: 19px;&quot;&gt;&lt;div&gt;add_description&lt;/div&gt;&lt;/div&gt;" style="shape=hexagon;perimeter=hexagonPerimeter2;whiteSpace=wrap;html=1;fixedSize=1;" vertex="1" parent="hAbh9SorM6jJL6epeVYg-741">
          <mxGeometry x="100" y="510" width="120" height="80" as="geometry" />
        </mxCell>
        <mxCell id="hAbh9SorM6jJL6epeVYg-763" style="edgeStyle=orthogonalEdgeStyle;rounded=0;orthogonalLoop=1;jettySize=auto;html=1;entryX=1;entryY=0.5;entryDx=0;entryDy=0;" edge="1" parent="hAbh9SorM6jJL6epeVYg-741" source="hAbh9SorM6jJL6epeVYg-764" target="hAbh9SorM6jJL6epeVYg-767">
          <mxGeometry relative="1" as="geometry" />
        </mxCell>
        <mxCell id="hAbh9SorM6jJL6epeVYg-764" value="&lt;div style=&quot;color: rgb(59, 59, 59); background-color: rgb(255, 255, 255); font-family: Consolas, &amp;quot;Courier New&amp;quot;, monospace; font-weight: normal; font-size: 14px; line-height: 19px;&quot;&gt;&lt;div&gt;skip_description&lt;/div&gt;&lt;/div&gt;" style="shape=hexagon;perimeter=hexagonPerimeter2;whiteSpace=wrap;html=1;fixedSize=1;" vertex="1" parent="hAbh9SorM6jJL6epeVYg-741">
          <mxGeometry x="285" y="510" width="120" height="80" as="geometry" />
        </mxCell>
        <mxCell id="hAbh9SorM6jJL6epeVYg-765" style="edgeStyle=orthogonalEdgeStyle;rounded=0;orthogonalLoop=1;jettySize=auto;html=1;entryX=0.5;entryY=0;entryDx=0;entryDy=0;entryPerimeter=0;" edge="1" parent="hAbh9SorM6jJL6epeVYg-741" source="hAbh9SorM6jJL6epeVYg-767" target="hAbh9SorM6jJL6epeVYg-769">
          <mxGeometry relative="1" as="geometry" />
        </mxCell>
        <mxCell id="hAbh9SorM6jJL6epeVYg-766" style="edgeStyle=orthogonalEdgeStyle;rounded=0;orthogonalLoop=1;jettySize=auto;html=1;entryX=0.5;entryY=0;entryDx=0;entryDy=0;" edge="1" parent="hAbh9SorM6jJL6epeVYg-741" source="hAbh9SorM6jJL6epeVYg-767" target="hAbh9SorM6jJL6epeVYg-771">
          <mxGeometry relative="1" as="geometry" />
        </mxCell>
        <mxCell id="hAbh9SorM6jJL6epeVYg-767" value="&lt;div style=&quot;color: rgb(59, 59, 59); background-color: rgb(255, 255, 255); font-family: Consolas, &amp;quot;Courier New&amp;quot;, monospace; font-weight: normal; font-size: 14px; line-height: 19px;&quot;&gt;&lt;div&gt;DATE&lt;/div&gt;&lt;/div&gt;" style="rounded=1;whiteSpace=wrap;html=1;" vertex="1" parent="hAbh9SorM6jJL6epeVYg-741">
          <mxGeometry x="185" y="630" width="120" height="60" as="geometry" />
        </mxCell>
        <mxCell id="hAbh9SorM6jJL6epeVYg-768" value="" style="edgeStyle=orthogonalEdgeStyle;rounded=0;orthogonalLoop=1;jettySize=auto;html=1;" edge="1" parent="hAbh9SorM6jJL6epeVYg-741" source="hAbh9SorM6jJL6epeVYg-769" target="hAbh9SorM6jJL6epeVYg-773">
          <mxGeometry relative="1" as="geometry" />
        </mxCell>
        <mxCell id="hAbh9SorM6jJL6epeVYg-769" value="" style="shape=callout;whiteSpace=wrap;html=1;perimeter=calloutPerimeter;" vertex="1" parent="hAbh9SorM6jJL6epeVYg-741">
          <mxGeometry x="100" y="730" width="120" height="80" as="geometry" />
        </mxCell>
        <mxCell id="hAbh9SorM6jJL6epeVYg-770" value="" style="edgeStyle=orthogonalEdgeStyle;rounded=0;orthogonalLoop=1;jettySize=auto;html=1;" edge="1" parent="hAbh9SorM6jJL6epeVYg-741" source="hAbh9SorM6jJL6epeVYg-771" target="hAbh9SorM6jJL6epeVYg-775">
          <mxGeometry relative="1" as="geometry" />
        </mxCell>
        <mxCell id="hAbh9SorM6jJL6epeVYg-771" value="&lt;div style=&quot;color: rgb(59, 59, 59); background-color: rgb(255, 255, 255); font-family: Consolas, &amp;quot;Courier New&amp;quot;, monospace; font-weight: normal; font-size: 14px; line-height: 19px;&quot;&gt;&lt;div&gt;skip&lt;/div&gt;&lt;/div&gt;" style="ellipse;whiteSpace=wrap;html=1;aspect=fixed;" vertex="1" parent="hAbh9SorM6jJL6epeVYg-741">
          <mxGeometry x="305" y="730" width="80" height="80" as="geometry" />
        </mxCell>
        <mxCell id="hAbh9SorM6jJL6epeVYg-772" style="edgeStyle=orthogonalEdgeStyle;rounded=0;orthogonalLoop=1;jettySize=auto;html=1;entryX=0;entryY=0.5;entryDx=0;entryDy=0;" edge="1" parent="hAbh9SorM6jJL6epeVYg-741" source="hAbh9SorM6jJL6epeVYg-773" target="hAbh9SorM6jJL6epeVYg-778">
          <mxGeometry relative="1" as="geometry" />
        </mxCell>
        <mxCell id="hAbh9SorM6jJL6epeVYg-773" value="&lt;div style=&quot;color: rgb(59, 59, 59); background-color: rgb(255, 255, 255); font-family: Consolas, &amp;quot;Courier New&amp;quot;, monospace; font-weight: normal; font-size: 14px; line-height: 19px;&quot;&gt;&lt;div&gt;add_due&lt;/div&gt;&lt;/div&gt;" style="shape=hexagon;perimeter=hexagonPerimeter2;whiteSpace=wrap;html=1;fixedSize=1;" vertex="1" parent="hAbh9SorM6jJL6epeVYg-741">
          <mxGeometry x="100" y="840" width="120" height="80" as="geometry" />
        </mxCell>
        <mxCell id="hAbh9SorM6jJL6epeVYg-774" style="edgeStyle=orthogonalEdgeStyle;rounded=0;orthogonalLoop=1;jettySize=auto;html=1;entryX=1;entryY=0.5;entryDx=0;entryDy=0;" edge="1" parent="hAbh9SorM6jJL6epeVYg-741" source="hAbh9SorM6jJL6epeVYg-775" target="hAbh9SorM6jJL6epeVYg-778">
          <mxGeometry relative="1" as="geometry" />
        </mxCell>
        <mxCell id="hAbh9SorM6jJL6epeVYg-775" value="&lt;div style=&quot;color: rgb(59, 59, 59); background-color: rgb(255, 255, 255); font-family: Consolas, &amp;quot;Courier New&amp;quot;, monospace; font-weight: normal; font-size: 14px; line-height: 19px;&quot;&gt;&lt;div&gt;skip_due&lt;/div&gt;&lt;/div&gt;" style="shape=hexagon;perimeter=hexagonPerimeter2;whiteSpace=wrap;html=1;fixedSize=1;" vertex="1" parent="hAbh9SorM6jJL6epeVYg-741">
          <mxGeometry x="285" y="840" width="120" height="80" as="geometry" />
        </mxCell>
        <mxCell id="hAbh9SorM6jJL6epeVYg-776" style="edgeStyle=orthogonalEdgeStyle;rounded=0;orthogonalLoop=1;jettySize=auto;html=1;entryX=0.5;entryY=0;entryDx=0;entryDy=0;entryPerimeter=0;" edge="1" parent="hAbh9SorM6jJL6epeVYg-741" source="hAbh9SorM6jJL6epeVYg-778" target="hAbh9SorM6jJL6epeVYg-780">
          <mxGeometry relative="1" as="geometry" />
        </mxCell>
        <mxCell id="hAbh9SorM6jJL6epeVYg-777" style="edgeStyle=orthogonalEdgeStyle;rounded=0;orthogonalLoop=1;jettySize=auto;html=1;entryX=0.5;entryY=0;entryDx=0;entryDy=0;" edge="1" parent="hAbh9SorM6jJL6epeVYg-741" source="hAbh9SorM6jJL6epeVYg-778" target="hAbh9SorM6jJL6epeVYg-782">
          <mxGeometry relative="1" as="geometry" />
        </mxCell>
        <mxCell id="hAbh9SorM6jJL6epeVYg-778" value="&lt;div style=&quot;color: rgb(59, 59, 59); background-color: rgb(255, 255, 255); font-family: Consolas, &amp;quot;Courier New&amp;quot;, monospace; font-weight: normal; font-size: 14px; line-height: 19px;&quot;&gt;&lt;div&gt;&lt;div style=&quot;color: rgb(59, 59, 59); background-color: rgb(255, 255, 255); font-family: Consolas, &amp;quot;Courier New&amp;quot;, monospace; font-weight: normal; font-size: 14px; line-height: 19px;&quot;&gt;&lt;div&gt;FREQUENCY&lt;/div&gt;&lt;/div&gt;&lt;/div&gt;&lt;/div&gt;" style="rounded=1;whiteSpace=wrap;html=1;" vertex="1" parent="hAbh9SorM6jJL6epeVYg-741">
          <mxGeometry x="185" y="960" width="120" height="60" as="geometry" />
        </mxCell>
        <mxCell id="hAbh9SorM6jJL6epeVYg-779" value="" style="edgeStyle=orthogonalEdgeStyle;rounded=0;orthogonalLoop=1;jettySize=auto;html=1;" edge="1" parent="hAbh9SorM6jJL6epeVYg-741" source="hAbh9SorM6jJL6epeVYg-780" target="hAbh9SorM6jJL6epeVYg-784">
          <mxGeometry relative="1" as="geometry" />
        </mxCell>
        <mxCell id="hAbh9SorM6jJL6epeVYg-780" value="" style="shape=callout;whiteSpace=wrap;html=1;perimeter=calloutPerimeter;" vertex="1" parent="hAbh9SorM6jJL6epeVYg-741">
          <mxGeometry x="100" y="1060" width="120" height="80" as="geometry" />
        </mxCell>
        <mxCell id="hAbh9SorM6jJL6epeVYg-781" value="" style="edgeStyle=orthogonalEdgeStyle;rounded=0;orthogonalLoop=1;jettySize=auto;html=1;" edge="1" parent="hAbh9SorM6jJL6epeVYg-741" source="hAbh9SorM6jJL6epeVYg-782" target="hAbh9SorM6jJL6epeVYg-786">
          <mxGeometry relative="1" as="geometry" />
        </mxCell>
        <mxCell id="hAbh9SorM6jJL6epeVYg-782" value="&lt;div style=&quot;color: rgb(59, 59, 59); background-color: rgb(255, 255, 255); font-family: Consolas, &amp;quot;Courier New&amp;quot;, monospace; font-weight: normal; font-size: 14px; line-height: 19px;&quot;&gt;&lt;div&gt;skip&lt;/div&gt;&lt;/div&gt;" style="ellipse;whiteSpace=wrap;html=1;aspect=fixed;" vertex="1" parent="hAbh9SorM6jJL6epeVYg-741">
          <mxGeometry x="305" y="1060" width="80" height="80" as="geometry" />
        </mxCell>
        <mxCell id="hAbh9SorM6jJL6epeVYg-783" style="edgeStyle=orthogonalEdgeStyle;rounded=0;orthogonalLoop=1;jettySize=auto;html=1;entryX=0;entryY=0.5;entryDx=0;entryDy=0;" edge="1" parent="hAbh9SorM6jJL6epeVYg-741" source="hAbh9SorM6jJL6epeVYg-784" target="hAbh9SorM6jJL6epeVYg-788">
          <mxGeometry relative="1" as="geometry" />
        </mxCell>
        <mxCell id="hAbh9SorM6jJL6epeVYg-784" value="&lt;div style=&quot;color: rgb(59, 59, 59); background-color: rgb(255, 255, 255); font-family: Consolas, &amp;quot;Courier New&amp;quot;, monospace; font-weight: normal; font-size: 14px; line-height: 19px;&quot;&gt;&lt;div&gt;&lt;div style=&quot;color: rgb(59, 59, 59); background-color: rgb(255, 255, 255); font-family: Consolas, &amp;quot;Courier New&amp;quot;, monospace; font-weight: normal; font-size: 14px; line-height: 19px;&quot;&gt;&lt;div&gt;add_frequency&lt;/div&gt;&lt;/div&gt;&lt;/div&gt;&lt;/div&gt;" style="shape=hexagon;perimeter=hexagonPerimeter2;whiteSpace=wrap;html=1;fixedSize=1;" vertex="1" parent="hAbh9SorM6jJL6epeVYg-741">
          <mxGeometry x="100" y="1170" width="120" height="80" as="geometry" />
        </mxCell>
        <mxCell id="hAbh9SorM6jJL6epeVYg-785" style="edgeStyle=orthogonalEdgeStyle;rounded=0;orthogonalLoop=1;jettySize=auto;html=1;entryX=1;entryY=0.5;entryDx=0;entryDy=0;" edge="1" parent="hAbh9SorM6jJL6epeVYg-741" source="hAbh9SorM6jJL6epeVYg-786" target="hAbh9SorM6jJL6epeVYg-788">
          <mxGeometry relative="1" as="geometry" />
        </mxCell>
        <mxCell id="hAbh9SorM6jJL6epeVYg-786" value="&lt;div style=&quot;color: rgb(59, 59, 59); background-color: rgb(255, 255, 255); font-family: Consolas, &amp;quot;Courier New&amp;quot;, monospace; font-weight: normal; font-size: 14px; line-height: 19px;&quot;&gt;&lt;div&gt;&lt;div style=&quot;color: rgb(59, 59, 59); background-color: rgb(255, 255, 255); font-family: Consolas, &amp;quot;Courier New&amp;quot;, monospace; font-weight: normal; font-size: 14px; line-height: 19px;&quot;&gt;&lt;div&gt;skip_frequency&lt;/div&gt;&lt;/div&gt;&lt;/div&gt;&lt;/div&gt;" style="shape=hexagon;perimeter=hexagonPerimeter2;whiteSpace=wrap;html=1;fixedSize=1;" vertex="1" parent="hAbh9SorM6jJL6epeVYg-741">
          <mxGeometry x="285" y="1170" width="120" height="80" as="geometry" />
        </mxCell>
        <mxCell id="hAbh9SorM6jJL6epeVYg-787" value="" style="edgeStyle=orthogonalEdgeStyle;rounded=0;orthogonalLoop=1;jettySize=auto;html=1;" edge="1" parent="hAbh9SorM6jJL6epeVYg-741" source="hAbh9SorM6jJL6epeVYg-788" target="hAbh9SorM6jJL6epeVYg-790">
          <mxGeometry relative="1" as="geometry" />
        </mxCell>
        <mxCell id="hAbh9SorM6jJL6epeVYg-788" value="&lt;div style=&quot;color: rgb(59, 59, 59); background-color: rgb(255, 255, 255); font-family: Consolas, &amp;quot;Courier New&amp;quot;, monospace; font-weight: normal; font-size: 14px; line-height: 19px;&quot;&gt;&lt;div&gt;&lt;div style=&quot;color: rgb(59, 59, 59); background-color: rgb(255, 255, 255); font-family: Consolas, &amp;quot;Courier New&amp;quot;, monospace; font-weight: normal; font-size: 14px; line-height: 19px;&quot;&gt;&lt;div&gt;&lt;div style=&quot;color: rgb(59, 59, 59); background-color: rgb(255, 255, 255); font-family: Consolas, &amp;quot;Courier New&amp;quot;, monospace; font-weight: normal; font-size: 14px; line-height: 19px;&quot;&gt;&lt;div&gt;CONFIRM&lt;/div&gt;&lt;/div&gt;&lt;/div&gt;&lt;/div&gt;&lt;/div&gt;&lt;/div&gt;" style="rounded=1;whiteSpace=wrap;html=1;" vertex="1" parent="hAbh9SorM6jJL6epeVYg-741">
          <mxGeometry x="185" y="1290" width="120" height="60" as="geometry" />
        </mxCell>
        <mxCell id="hAbh9SorM6jJL6epeVYg-789" value="" style="edgeStyle=orthogonalEdgeStyle;rounded=0;orthogonalLoop=1;jettySize=auto;html=1;" edge="1" parent="hAbh9SorM6jJL6epeVYg-741" source="hAbh9SorM6jJL6epeVYg-790" target="hAbh9SorM6jJL6epeVYg-792">
          <mxGeometry relative="1" as="geometry" />
        </mxCell>
        <mxCell id="hAbh9SorM6jJL6epeVYg-790" value="&lt;div style=&quot;color: rgb(59, 59, 59); background-color: rgb(255, 255, 255); font-family: Consolas, &amp;quot;Courier New&amp;quot;, monospace; font-weight: normal; font-size: 14px; line-height: 19px;&quot;&gt;&lt;div&gt;&lt;div style=&quot;color: rgb(59, 59, 59); background-color: rgb(255, 255, 255); font-family: Consolas, &amp;quot;Courier New&amp;quot;, monospace; font-weight: normal; font-size: 14px; line-height: 19px;&quot;&gt;&lt;div&gt;confirm&lt;/div&gt;&lt;/div&gt;&lt;/div&gt;&lt;/div&gt;" style="ellipse;whiteSpace=wrap;html=1;aspect=fixed;" vertex="1" parent="hAbh9SorM6jJL6epeVYg-741">
          <mxGeometry x="205" y="1380" width="80" height="80" as="geometry" />
        </mxCell>
        <mxCell id="hAbh9SorM6jJL6epeVYg-791" style="edgeStyle=orthogonalEdgeStyle;rounded=0;orthogonalLoop=1;jettySize=auto;html=1;entryX=0.5;entryY=1;entryDx=0;entryDy=0;" edge="1" parent="hAbh9SorM6jJL6epeVYg-741" source="hAbh9SorM6jJL6epeVYg-792" target="hAbh9SorM6jJL6epeVYg-753">
          <mxGeometry relative="1" as="geometry" />
        </mxCell>
        <mxCell id="hAbh9SorM6jJL6epeVYg-792" value="&lt;div style=&quot;color: rgb(59, 59, 59); background-color: rgb(255, 255, 255); font-family: Consolas, &amp;quot;Courier New&amp;quot;, monospace; font-weight: normal; font-size: 14px; line-height: 19px;&quot;&gt;&lt;div&gt;&lt;div style=&quot;color: rgb(59, 59, 59); background-color: rgb(255, 255, 255); font-family: Consolas, &amp;quot;Courier New&amp;quot;, monospace; font-weight: normal; font-size: 14px; line-height: 19px;&quot;&gt;&lt;div&gt;&lt;div style=&quot;color: rgb(59, 59, 59); background-color: rgb(255, 255, 255); font-family: Consolas, &amp;quot;Courier New&amp;quot;, monospace; font-weight: normal; font-size: 14px; line-height: 19px;&quot;&gt;&lt;div&gt;data_confirm&lt;/div&gt;&lt;/div&gt;&lt;/div&gt;&lt;/div&gt;&lt;/div&gt;&lt;/div&gt;" style="shape=hexagon;perimeter=hexagonPerimeter2;whiteSpace=wrap;html=1;fixedSize=1;" vertex="1" parent="hAbh9SorM6jJL6epeVYg-741">
          <mxGeometry x="185" y="1490" width="120" height="80" as="geometry" />
        </mxCell>
      </root>
    </mxGraphModel>
  </diagram>
</mxfile>
